<svg viewBox="0 0 291 434" fill="none" xmlns="http://www.w3.org/2000/svg">
  <path d="M159.784 -18.4219C159.784 -18.4219 82.1646 60.0594 6.85707 69.6223C5.2056 62.3677 0.581438 47.199 50.1259 11.9154C92.4038 -9.51859 139.966 -32.9311 159.784 -29.6336L159.784 -18.4219Z" fill="#447A67" />
  <path d="M137.984 126.999C137.984 126.999 78.2008 199.875 13.4628 216.033C11.481 210.427 5.53565 198.226 45.1712 163.932C79.8523 141.509 118.827 117.437 136.663 117.766L137.984 126.999Z" fill="#447A67" />
  <path d="M139.636 275.059C139.636 275.059 95.0463 348.264 41.208 367.06C38.8959 361.784 32.9506 350.572 63.6681 315.289C91.413 291.876 122.461 266.485 137.654 266.155L139.636 275.059Z" fill="#447A67" />
  <path d="M174.978 374.315C174.978 374.315 176.299 412.566 160.775 433.011C158.463 431.692 153.509 428.724 156.481 408.279C161.105 392.781 166.721 375.634 172.336 371.677L174.978 374.315Z" fill="#447A67" />
  <path d="M163.087 -18.0921C163.087 -18.0921 217.586 77.8662 287.609 106.555C290.912 99.9597 299.499 86.7695 260.855 39.6148C225.513 7.62866 185.877 -26.9955 165.729 -28.974L163.087 -18.0921Z" fill="#447A67" />
  <path d="M139.636 122.713C139.636 122.713 226.835 238.126 262.176 203.832C268.452 192.62 265.809 201.524 230.798 162.283C199.09 135.573 159.454 115.458 141.618 113.809L139.636 122.713Z" fill="#447A67" />
  <path d="M133.361 270.442C133.361 270.442 187.529 336.723 243.349 348.264C245.001 342.658 249.295 330.787 213.953 300.12C183.235 280.665 148.885 259.89 133.691 261.539L133.361 270.442Z" fill="#447A67" />
  <path d="M177.62 -88C177.62 -88 126.755 91.7158 133.36 210.097C139.966 328.479 173.657 373.985 173.657 373.985" stroke="#447A67" stroke-width="2" stroke-miterlimit="10" />
  <path d="M13.4629 111.831C6.53102 111.831 0.911623 117.441 0.911622 124.361C0.911622 131.282 6.53102 136.892 13.4629 136.892C20.3948 136.892 26.0142 131.282 26.0142 124.361C26.0142 117.441 20.3948 111.831 13.4629 111.831Z" fill="white" />
  <path d="M18.0871 119.415C18.0871 119.415 18.0871 117.766 18.0871 113.809C18.0871 109.852 22.0507 112.49 23.0416 115.458C24.0325 118.096 30.9687 117.437 30.9687 117.437L33.611 116.118L144.26 52.4752C139.306 56.1024 67.9618 106.885 34.9322 117.107C34.6019 117.437 28.6566 120.734 28.6566 121.723C28.6566 122.713 29.9778 128.648 24.3628 128.648C19.4083 128.648 23.3719 125.68 24.3628 125.021C23.7022 125.351 21.0598 126.01 18.0871 123.702C14.7842 121.064 18.0871 119.415 18.0871 119.415Z" fill="#447A67" />
  <path d="M265.148 130.297C258.217 130.297 252.597 135.907 252.597 142.828C252.597 149.748 258.217 155.358 265.148 155.358C272.08 155.358 277.7 149.748 277.7 142.828C277.7 135.907 272.08 130.297 265.148 130.297Z" fill="white" />
  <path d="M261.515 136.892C261.515 136.892 261.846 135.243 262.506 131.286C263.167 127.329 258.873 129.308 257.552 131.946C256.231 134.584 249.294 132.605 249.294 132.605L246.982 130.957L148.884 48.8478C153.178 53.1346 214.613 115.458 245.331 131.286C245.661 131.616 250.946 135.903 250.616 136.892C250.616 137.881 248.303 143.487 253.588 144.476C258.543 145.466 254.909 141.838 254.249 140.849C254.909 141.179 257.552 142.168 260.524 140.849C264.488 138.871 261.515 136.892 261.515 136.892Z" fill="#447A67" />
  <path d="M51.7773 272.091C44.8455 272.091 39.2261 277.701 39.2261 284.622C39.2261 291.542 44.8455 297.152 51.7773 297.152C58.7092 297.152 64.3286 291.542 64.3286 284.622C64.3286 277.701 58.7092 272.091 51.7773 272.091Z" fill="white" />
  <path d="M56.4016 279.675C56.4016 279.675 56.4016 278.027 56.4016 274.07C56.4016 270.113 60.3651 272.751 61.356 275.718C62.3469 278.356 69.2831 277.697 69.2831 277.697L71.9255 276.378L136.333 193.28C136.994 201.854 99.3401 256.263 73.2467 277.037C72.9164 277.367 66.971 280.665 66.971 281.654C66.971 282.643 68.2922 288.579 62.6772 288.579C57.7228 288.579 61.6863 285.611 62.6772 284.951C62.0166 285.281 59.3742 285.941 56.4016 283.632C53.0986 281.324 56.4016 279.675 56.4016 279.675Z" fill="#447A67" />
  <path d="M114.204 381.239C107.272 381.239 101.652 386.85 101.652 393.77C101.652 400.691 107.272 406.301 114.204 406.301C121.135 406.301 126.755 400.691 126.755 393.77C126.755 386.85 121.135 381.239 114.204 381.239Z" fill="white" />
  <path d="M118.167 388.494C118.167 388.494 119.818 388.164 123.782 387.505C127.745 386.845 124.112 383.548 121.47 383.218C118.497 382.888 117.837 375.963 117.837 375.963L118.497 372.996L155.49 329.798C146.903 330.787 133.03 341.669 117.837 371.677C117.837 372.006 115.524 378.601 114.534 378.601C113.543 378.931 107.597 378.601 108.588 383.877C109.579 388.824 111.561 384.207 112.221 383.218C112.221 383.877 111.891 386.516 114.534 389.154C117.176 391.792 118.167 388.494 118.167 388.494Z" fill="#447A67" />
  <path d="M210.65 360.795C203.718 360.795 198.099 366.405 198.099 373.325C198.099 380.246 203.718 385.856 210.65 385.856C217.582 385.856 223.201 380.246 223.201 373.325C223.201 366.405 217.582 360.795 210.65 360.795Z" fill="white" />
  <path d="M204.374 370.687C204.374 370.687 202.723 371.347 199.09 372.666C195.456 373.985 196.447 369.368 198.759 367.72C201.071 366.071 197.768 359.476 197.768 359.476L195.456 357.497L151.197 330.787C159.124 327.16 167.051 338.701 195.787 355.848C196.117 356.178 201.402 360.465 202.393 360.135C203.383 359.805 208.338 356.508 210.32 361.454C211.971 366.071 208.008 363.433 207.017 362.773C207.347 363.433 208.998 365.741 208.008 369.039C207.017 373.325 204.374 370.687 204.374 370.687Z" fill="#447A67" />
  <path d="M226.504 272.091C219.207 272.091 213.292 277.701 213.292 284.622C213.292 291.542 219.207 297.152 226.504 297.152C233.801 297.152 239.716 291.542 239.716 284.622C239.716 277.701 233.801 272.091 226.504 272.091Z" fill="white" />
  <path d="M221.549 279.675C221.549 279.675 221.549 278.027 221.549 274.07C221.549 270.113 217.256 272.751 216.265 275.718C215.274 278.356 207.677 277.697 207.677 277.697L204.704 276.378L135.672 193.61C134.682 202.183 174.978 256.593 203.053 277.037C203.383 277.367 209.659 280.665 209.659 281.654C209.659 282.643 208.338 288.579 213.953 288.579C219.237 288.579 214.943 285.611 213.953 284.951C214.613 285.281 217.586 285.941 220.558 283.632C225.183 281.324 221.549 279.675 221.549 279.675Z" fill="#447A67" />
</svg>
  