<svg viewBox="0 0 367 458" xmlns="http://www.w3.org/2000/svg">
  <path d="M243 25.7C243 21.4 245.6 17.9 248.9 17.9L251.9 17.5C252.3 17.4 252.6 17.4 253 17.4C256.5 17.4 259.3 21.1 259.3 25.7C259.3 30.3 256.5 34 253 34C252.6 34 252.3 33.9 251.9 33.9L248.9 33.5C245.6 33.5 243 30 243 25.7Z" fill="#E18258" />
  <path d="M250.6 52.5C264.7 71.9 262.6 85.9 256 101.6C251.1 113.3 240.2 131.9 224.6 155.4C216.4 167.8 195.5 169 188.2 152.1C177.6 127.6 171.6 85 171.6 85L198.2 76.3L210.2 107.2C210.2 107.2 221.1 85.3 231.7 67.9C239.4 55.1 245 53.4 250.6 52.5Z" fill="#F7DEDF" />
  <path d="M155.4 75.1C156.5 84.3 169.2 92.7 173.9 99.3C178.2 105.5 194.8 98.8 198.1 90.6C199.8 86.5 199.7 81.5 198.3 77.6H198.7C194.3 63.5 189.2 59.8 186 55.6C182.8 51.4 181 48.3 178.8 50.9C178.5 51.3 178.3 51.7 178.1 52.2C177.6 49.1 170.9 50 167.1 51.9C167 51.9 167 52 166.9 52C166.6 50.8 166.4 49.7 166.3 48.7C165.7 44.5 160.7 44.7 160.5 50.4C160.4 53 160.5 56.4 161 59.6C157.5 62.5 154.7 69.1 155.4 75.1ZM179.4 67.3C177.8 66.8 176.1 65.9 174.5 64.9C174.7 64.6 174.9 64.3 175 64C175.6 62.1 173.6 60.3 170.1 59.7C170.6 59 171.4 58.4 172.4 57.8C174.8 56.6 176.9 55.8 177.8 54.4C177.7 56.9 178.6 59.7 179.5 61.1C180.7 63.2 182.1 67.3 179.4 67.3Z" fill="#F7DEDF" />
  <path d="M222.6 171.5H222.7C224.5 143.3 247.1 111 274.8 110.6C274.9 110.6 274.9 110.6 275 110.6C275.1 110.6 275.2 110.6 275.3 110.6C289.6 111 303.1 127.2 312.8 142.8C322.3 158.1 327.9 175.5 329.2 193.5C333.1 245.3 342.6 370.1 342.6 370.1C343.6 392.9 307.2 399.7 304.7 377.3C303.1 356.9 288.1 267.7 275.3 190.7L274 379.4C273.2 400.3 238.2 400.8 236.6 370.1C234.9 343.3 223.2 233.4 222.8 176.4C222.8 175.9 222.8 175.5 222.8 175C222.8 174.7 222.8 174.4 222.8 174.2C222.6 173.4 222.6 172.5 222.6 171.5Z" fill="#BC3436" />
  <path d="M222.6 171.5H222.7C224.5 143.3 247.1 111 274.8 110.6C274.9 110.6 274.9 110.6 275 110.6C275.1 110.6 275.2 110.6 275.3 110.6C289.6 111 303.1 127.2 312.8 142.8C322.3 158.1 327.9 175.6 329.2 193.6C330 203.7 330.9 216.3 331.9 229.4L284.3 245.2C281.3 227.1 278.2 208.6 275.2 190.7L274.8 245L224.9 229.1C223.4 207.5 222.8 192.6 222.7 176.4C222.7 175.9 222.7 175.5 222.7 175C222.7 174.7 222.7 174.4 222.7 174.2C222.6 173.4 222.6 172.5 222.6 171.5Z" fill="#447A67" />
  <path d="M319.5 198.4L320.2 229.5H212C212 229.5 218.4 175.3 226 153.9C234 131.3 253.1 110.7 275.4 110.7C297.4 110.7 316.6 130.6 324.1 153.1C330.9 173.4 341.5 229.4 341.5 229.4H328.7L319.5 198.4Z" fill="#EAA196" />
  <path d="M297.8 81.7L303.2 115.8L309.2 103.4L297.8 81.7Z" fill="#3F2552" />
  <path d="M286.6 42.9C278.8 49.1 267.5 50.1 257.9 46.5L259.1 37.8L285.2 22.4L286.7 23.3V42.9H286.6Z" fill="#F7DEDF" />
  <path d="M256.9 63.3C257 63.5 257 63.6 257.1 63.8C257.1 63.6 257 63.4 256.9 63.3Z" fill="#F7DEDF" />
  <path d="M280.1 63.5L278.6 64.7L280.1 63.5Z" fill="#F7DEDF" />
  <path d="M256.2 59.6C256.2 60.8 256.5 61.9 256.8 63C256.4 61.9 256.2 60.8 256.2 59.6Z" fill="#F7DEDF" />
  <path d="M246.7 53.5C250 52.6 253.5 51.9 257 51.4L257.8 46.5C267.4 50.2 278.7 49.1 286.5 42.9L286.6 51C296.3 52.4 306.6 55.7 315.1 60.2C320.6 63.2 322.9 69.9 320.4 75.6L301.1 120.1H249L240.4 99.7C236.7 91 237 64.8 246.7 53.5Z" fill="#447A67" />
  <path d="M273.8 34.3C274.7 32.1 275.7 29.8 276.5 27.5L259 37.8L257.8 46.5C267.4 44.6 272.3 38 273.8 34.3Z" fill="#3F2552" />
  <path d="M300.9 9.49999C300.9 10.6 299.8 11.5 299.4 12.5C299 13.5 299.1 14.9 298.4 15.6C297.6 16.4 296.3 16.2 295.3 16.6C294.3 17 293.4 18.1 292.3 18.1C291.2 18.1 290.3 17 289.3 16.6C288.3 16.2 286.9 16.3 286.2 15.6C285.4 14.8 285.6 13.5 285.2 12.5C284.8 11.5 283.7 10.6 283.7 9.49999C283.7 8.39999 284.8 7.49999 285.2 6.49999C285.6 5.49999 285.5 4.09999 286.2 3.39999C287 2.59999 288.3 2.79999 289.3 2.39999C290.3 1.99999 291.2 0.899994 292.3 0.899994C293.4 0.899994 294.3 1.99999 295.3 2.39999C296.3 2.79999 297.7 2.69999 298.4 3.39999C299.2 4.19999 299 5.49999 299.4 6.49999C299.9 7.49999 300.9 8.39999 300.9 9.49999Z" fill="#3F2552" />
  <path d="M286.6 22.3C286.6 31.9 270.1 40.7 261.5 41.9C253.9 43 247.9 38.4 247.2 31.8C246.6 25.7 246.3 21.6 247.6 13.3C248.5 7.59998 252.2 5.09998 256.9 5.09998H277.2C282.4 5.09998 286.6 9.29998 286.6 14.5V22.3Z" fill="#F7DEDF" />
  <path d="M253.1 5.69998C254.5 5.19998 255.8 3.69998 257.3 3.69998C258.7 3.69998 258.7 4.59998 260.2 4.59998C261.6 4.59998 261.6 3.69998 263.1 3.69998C264.5 3.69998 264.5 4.59998 266 4.59998C267.4 4.59998 267.4 3.69998 268.9 3.69998C270.3 3.69998 270.3 4.59998 271.8 4.59998C273.2 4.59998 273.2 3.69998 274.7 3.69998C276.1 3.69998 276.7 4.69998 277.6 4.59998C278.5 4.59998 279.7 3.79998 280.7 3.89998C281.7 4.09998 282.4 5.19998 283.3 5.49998C284.2 5.79998 285.5 5.29998 286.4 5.79998C287.3 6.29998 287.6 7.59998 288.4 8.19998C289.2 8.79998 290.5 8.69998 291.2 9.39998C291.9 10.1 291.8 11.5 292.4 12.3C293 13.1 294.3 13.5 294.7 14.3C295.1 15.2 294.6 16.4 294.9 17.4C295.2 18.4 296.4 19.2 296.6 20.3C296.8 21.3 296.1 22.6 296.3 23.6C296.5 24.7 297.6 25.6 297.7 26.7C297.8 27.8 297 29 297.1 30C297.2 31.1 298.2 32.1 298.2 33.2C298.3 34.3 297.3 35.5 297.3 36.4C297.3 37.6 298.2 38.7 298.2 39.6C298.2 43 296.3 44.2 294.3 43.9C293.4 43.8 292.2 43.1 291 43.2C290 43.3 289 44.3 287.8 44.3C286.8 44.3 285.7 43.4 284.6 43.4C284.1 43.4 283.6 43.2 283.2 43C282.4 42.5 281.8 41.5 281.9 40.5V39.9C282 39 282.6 38 282.6 36.9C282.5 35.9 281.5 34.9 281.5 33.7C281.5 32.7 282.4 31.6 282.4 30.5C282.4 29.5 281.5 28.3 281.6 27.2C281.7 26.1 282.7 25.1 282.8 24.1V24C278.3 23.3 274.2 20.5 273.9 11.2C268.3 7.19998 252.6 14.7 249.7 8.19998C250.6 6.99998 251.8 6.19998 253.1 5.69998Z" fill="#3F2552" />
  <path d="M281.6 21.1C281.9 17.3 281.4 13.8 280.8 11.4C280.2 9 277.8 6.1 275.3 5.7C270.2 4.9 261.2 3.79999 251.5 6.59999C254.6 2.19999 270.3 0.999993 280.5 4.09999C280.5 4.09999 280.5 4.09999 280.6 4.09999C283 4.59999 284.9 6.39999 285.6 8.79999C286.6 12.2 287.8 17.7 286.6 23.4C284.6 32.5 281.6 21.1 281.6 21.1Z" fill="#BC3436" />
  <path d="M288.2 24.1C289.2 26.8 287.8 29.8 285.1 30.7C282.4 31.7 277.4 31 276.4 28.4C275.4 25.8 278.9 22 281.6 21C284.3 20 287.2 21.5 288.2 24.1Z" fill="#BC3436" />
  <path d="M276.8 375.9V403.7H219C216.6 403.7 214.8 401.4 215.5 399.1C218.8 387 234.7 383.8 234.7 370.2C234.7 361.4 251.7 363.4 259.3 369.3C264 371.6 270.6 368.4 273.4 369.3C276.6 370.4 276.8 372.4 276.8 375.9Z" fill="#EEDADD" />
  <path d="M300.9 375.9L303.2 403.7H331L360 399.3C362.4 399.3 364.2 397 363.5 394.7C360.2 382.6 344.3 383.8 344.3 370.2C344.3 361.4 327.3 363.4 319.7 369.3C315 371.6 307 368.4 304.3 369.3C301.1 370.4 300.9 372.4 300.9 375.9Z" fill="#EEDADD" />
  <path d="M361.7 399C358.1 403.3 351.2 403.8 351.2 403.8H328.9C328.9 403.8 354.4 395.8 361.7 399Z" fill="#3F2552" />
  <path d="M272.3 101.2C266.3 97.6 258.4 96.4 255.6 96.5C252.8 96.5 245.2 97.1 244 98.6C242.8 100.1 245 104.1 248.9 104.6C252.8 105.1 276.9 103.9 272.3 101.2Z" fill="#F7DEDF" />
  <path d="M252.2 136.4H233.7C232.2 136.4 230.8 135.2 230.7 133.7L225.7 92.1C225.5 90.6 226.6 89.4 228.1 89.4H246.6C248.1 89.4 249.5 90.6 249.6 92.1L254.6 133.7C254.7 135.2 253.7 136.4 252.2 136.4Z" fill="#F7DEDF" />
  <path d="M250.8 136.4H232.3C230.8 136.4 229.4 135.2 229.3 133.7L224.3 92.1C224.1 90.6 225.2 89.4 226.7 89.4H245.2C246.7 89.4 248.1 90.6 248.2 92.1L253.2 133.7C253.4 135.2 252.3 136.4 250.8 136.4Z" fill="#BC3436" />
  <path d="M230.4 110.6C229.6 109.1 230.3 107.2 231.7 106.2C233.9 104.7 239.6 101.4 247.5 100.7C263.2 99.3 272.3 101.1 272.3 101.1L301.1 117.5C299.4 96.5 293.3 81.7 298.2 53.5C321.4 59.6 328.3 67.9 333.2 84.2C336.8 96.4 340 117.7 342.8 145.7C344.3 160.5 328.8 174.6 312.5 166.2C295.8 157.5 275.1 140.4 264.4 131.1C261.1 131.3 257.8 131.4 255.1 131.4C254.9 131.4 254.7 131.5 254.4 131.4C242.4 131.1 240.4 130.9 238 130.1C235.5 129.3 234.7 124.8 239.7 124.6C241.3 124.5 242.4 124.4 243.4 124.2C240.3 123.9 237.1 123.6 235.9 123.3C233.6 122.8 231.4 121.9 230.8 120C230.5 118.9 230.8 117.8 232.3 117.1C232.2 117.1 232 117 231.9 117C227 116 227.2 112.4 230.4 110.6Z" fill="#F7DEDF" />
  <path d="M284.8 17.4C285.2 17.4 285.5 17.5 285.9 17.5L288.9 17.9V33.5L285.9 33.9C285.5 34 285.2 34 284.8 34C281.3 34 278.5 30.3 278.5 25.7C278.5 21.1 281.3 17.4 284.8 17.4Z" fill="#E18258" />
  <path d="M280.9 26.2C281.287 26.2 281.6 25.8866 281.6 25.5C281.6 25.1134 281.287 24.8 280.9 24.8C280.514 24.8 280.2 25.1134 280.2 25.5C280.2 25.8866 280.514 26.2 280.9 26.2Z" fill="#8ACDE5" />
  <path d="M288.9 33.5C292.158 33.5 294.8 30.0078 294.8 25.7C294.8 21.3922 292.158 17.9 288.9 17.9C285.642 17.9 283 21.3922 283 25.7C283 30.0078 285.642 33.5 288.9 33.5Z" fill="#EFB663" />
  <path d="M290.5 25.7C290.5 23.9 289.5 22.3 288.2 21.9C288.4 21.8 288.6 21.8 288.8 21.8C290.4 21.8 291.7 23.5 291.7 25.7C291.7 27.9 290.4 29.6 288.8 29.6C288.6 29.6 288.4 29.6 288.2 29.5C289.6 29.1 290.5 27.5 290.5 25.7Z" fill="#E18258" />
  <path d="M210.6 107.4C214.2 114.1 217 121.2 219.8 128.2C220 128.8 219.4 129.1 219.1 128.5C215.5 121.8 212.7 114.7 209.9 107.7C209.8 107.2 210.4 106.9 210.6 107.4Z" fill="#3F2552" />
  <path d="M158.7 65.3C159.5 64.7 160.6 64.4 161.6 64.3C162.6 64.2 163.6 64.3 164.6 64.6C165.1 64.7 165.6 64.9 166 65.1C166.5 65.3 166.9 65.5 167.3 65.8C167.8 66.1 168.2 66.4 168.6 66.7H168.7C169.8 66.6 170.8 66.4 171.7 66C172.2 65.8 172.6 65.6 173 65.3C173.4 65 173.7 64.7 173.9 64.3C174.1 63.9 174.2 63.5 174.2 63.2C174.2 62.8 173.9 62.5 173.6 62.2C173 61.6 172 61.1 171.1 60.8C170.1 60.5 169.1 60.3 168 60.2C165.9 60 163.7 60.2 161.6 60.7C161.3 60.8 160.7 60.3 160.8 60.2C161.1 58.4 161.8 56.8 162.9 55.4C164 54 165.4 52.8 167 52.1C167.2 52 167.6 52.5 167.4 52.7C166.1 53.8 165 55 164 56.3C163.1 57.5 162.3 58.7 161.7 60C163.7 59.4 165.9 59 168.1 59.1C169.2 59.1 170.4 59.3 171.5 59.6C172.6 59.9 173.8 60.4 174.7 61.3C174.9 61.5 175.1 61.8 175.3 62.1C175.5 62.4 175.6 62.8 175.6 63.1C175.6 63.5 175.6 63.8 175.5 64.2C175.4 64.6 175.3 64.9 175.1 65.1C174.8 65.7 174.3 66.1 173.8 66.5C173.3 66.9 172.7 67.1 172.2 67.3C171.3 67.6 170.5 67.8 169.6 67.9C169.6 67.9 169.6 67.9 169.7 68C170.4 68.9 170.8 70 170.7 71.1C170.7 71.7 170.5 72.3 170.2 72.8C169.9 73.2 169.5 73.6 169.1 73.8C172.8 75.8 176.5 77.5 180.5 79C180.8 79.1 180.7 79.7 180.3 79.7C175.8 79.1 171.5 77.2 168 74.3C167.3 74.5 166.5 74.5 165.8 74.4C164.8 74.2 163.9 73.8 163 73.4C162.4 73.1 162.7 72.5 163.3 72.7C164.2 73 165.1 73.3 165.9 73.3C167.1 73.4 168.1 72.9 168.3 72.8C169 72.4 169.3 71.8 169.4 71C169.4 70.3 169.2 69.4 168.7 68.8C167.4 67.2 165.9 66.7 165.6 66.5C165.2 66.3 164.8 66.2 164.4 66C163.6 65.7 162.7 65.5 161.8 65.5C160.9 65.5 160.1 65.6 159.3 66C158.7 66.1 158.3 65.6 158.7 65.3Z" fill="#3F2552" />
  <path d="M265.8 71C265.2 70.9 264.7 70.8 264.1 70.7C263.6 70.5 263 70.3 262.5 70.1C260.5 69 258.9 67.3 257.9 65.4C257.6 64.9 257.4 64.4 257.2 63.9C257 63.4 256.9 62.9 256.8 62.3C256.6 61.2 256.4 60.2 256.3 59.1C256.1 57 256.2 54.8 256.6 52.7C256.9 51.3 257.5 51.4 257.3 52.8C257.1 54.8 257.1 56.9 257.3 59C257.4 60 257.6 61 257.9 62C258 62.5 258.2 63 258.4 63.4C258.6 63.9 258.8 64.3 259 64.7C260 66.4 261.4 67.9 263.1 68.8C264.8 69.7 266.8 69.8 268.8 69.4C272.7 68.6 276.4 66.5 279.4 63.8C282.4 61 284.6 57.4 285.4 53.3C285.6 52.2 286.3 52.2 286.1 53.4C285.8 55.5 285.1 57.6 284.1 59.5C283.1 61.4 281.8 63.1 280.3 64.7C277.2 67.7 273.4 69.9 269.1 70.8C268 71.1 266.9 71.1 265.8 71Z" fill="#3F2552" />
  <path d="M263.1 22.5C262.8 22.7 262.6 22.9 262.5 23.2C262.5 23.3 261.8 23.5 261.8 23.3C261.7 23 261.7 22.6 261.9 22.3C262 22 262.2 21.7 262.4 21.5C262.8 21.1 263.4 20.8 264 20.8C264.6 20.8 265.3 21 265.7 21.4C266.2 21.8 266.5 22.4 266.5 22.9C266.5 23.1 265.9 23.2 265.8 23.1C265.6 22.8 265.3 22.6 265 22.4C264.7 22.3 264.4 22.2 264.1 22.2C263.7 22.2 263.4 22.3 263.1 22.5Z" fill="#3F2552" />
  <path d="M251.4 23.1C251.2 22.4 250.7 22 250.3 21.8C250.1 21.7 249.9 21.7 249.7 21.8C249.5 21.9 249.2 22.1 249 22.4C248.9 22.5 248.3 22.3 248.3 22.2C248.3 21.7 248.5 21.2 249 20.8C249.1 20.7 249.2 20.6 249.4 20.5C249.5 20.4 249.7 20.4 249.9 20.4C250.2 20.3 250.5 20.4 250.8 20.5C251.9 20.9 252.5 22.2 252.1 23.2C252.1 23.3 251.4 23.2 251.4 23.1Z" fill="#3F2552" />
  <path d="M260 27.7C259.2 28.1 258.3 28.3 257.4 28.5C256.9 28.6 256.5 28.6 256 28.5H255.3C255.1 28.5 254.8 28.5 254.5 28.4C253.4 28.1 252.6 27.1 252.5 25.9C252.5 25.6 252.5 25.3 252.6 25.1C252.6 24.9 252.7 24.7 252.7 24.4C252.8 24 252.9 23.5 253 23.1C253.2 22.2 253.5 21.4 253.7 20.6L253.8 20.3C253.8 20.2 253.8 20.2 253.8 20.2V20.1C253.8 20 253.8 19.9 253.8 19.8C253.7 19.6 253.6 19.4 253.4 19.2C253.3 19.2 253.3 19.2 253.2 19.1L252.9 19C252.7 18.9 252.5 18.9 252.3 18.9C251.9 18.8 251.5 18.8 251.1 18.8C250.3 18.8 249.4 18.8 248.7 19C248.2 19.1 247.9 18.6 248.5 18.3C249.4 18 250.2 17.8 251.1 17.7C251.5 17.7 252 17.6 252.5 17.7C252.7 17.7 253 17.7 253.2 17.8L253.6 17.9C253.7 17.9 253.9 18 254 18C254.6 18.2 255 18.7 255.2 19.3C255.3 19.6 255.3 19.9 255.3 20.2C255.3 20.3 255.3 20.4 255.3 20.4C255.3 20.5 255.3 20.6 255.2 20.6L255.1 20.9C254.9 21.7 254.6 22.5 254.4 23.3C254.3 23.7 254.2 24.1 254.1 24.5C254 24.9 253.9 25.4 253.9 25.6C253.9 26.2 254.3 26.8 254.9 27C255.1 27.1 255.7 27.1 256 27.2C256.4 27.3 256.8 27.3 257.2 27.3C258 27.3 258.8 27.1 259.6 26.9C260.2 26.9 260.5 27.5 260 27.7Z" fill="#3F2552" />
  <path d="M267.1 19.7C266.2 19.4 265.2 19.3 264.3 19.2C263.3 19.1 262.3 18.9 261.4 18.9C261.3 18.9 261.1 18.3 261.2 18.2C262.3 17.7 263.4 17.6 264.5 17.7C265.1 17.8 265.6 17.9 266.1 18.1C266.6 18.3 267.1 18.6 267.6 19.1C267.7 19.2 267.3 19.7 267.1 19.7Z" fill="#3F2552" />
  <path d="M225.2 386.3C227.6 385.4 230.2 384.9 232.8 384.8C235.4 384.7 238 385.1 240.5 386.1C242.9 387.1 245.2 388.5 247.1 390.3C247.2 390.4 247.5 390.4 247.7 390.2C249.4 389.1 250.9 387.7 252.2 386.3C253.5 384.8 254.7 383.2 255.6 381.4C257.5 377.9 258.5 373.9 258.8 369.9C258.9 369.2 259.5 369.2 259.5 369.9V371.5C259.5 372 259.4 372.5 259.4 373.1C259.4 373.4 259.4 373.6 259.3 373.9L259.2 374.7C259.1 375.2 259.1 375.7 258.9 376.3C258.7 377.3 258.5 378.1 258.1 379.1C260 379.3 261.7 380.3 263.3 381.3C264.9 382.3 266.2 383.7 267.3 385.3C268.4 386.8 269.2 388.5 269.8 390.3C270.4 392.1 270.8 393.9 271.1 395.7C271.2 396.3 270.6 396.4 270.4 395.9C269.4 392.5 268.1 389.1 266.1 386.2C265.1 384.8 263.9 383.5 262.5 382.4C261.1 381.4 259.4 380.5 257.7 380.4C257.6 380.4 257 381.6 256.7 382.3C254.7 386 251.6 389.7 247.9 391.5C247.9 391.5 248.9 392.5 249.5 393.3C249.9 393.8 250.3 394.3 250.7 394.9C250.9 395.2 251.1 395.4 251.3 395.7C251.4 395.8 251.5 396 251.6 396.1C251.7 396.2 251.6 396.2 251.6 396.2H257.3L263.4 396.3C267.4 396.4 271.5 396.4 275.5 396.5C277 396.6 277 397.2 275.5 397.2C271.5 397.3 267.4 397.4 263.4 397.4L257.3 397.5H250.8L250.6 397.1C250.5 397 250.4 396.8 250.4 396.8L250.2 396.4C250 396.1 249.9 395.9 249.7 395.6C249.3 395.1 249 394.6 248.6 394.1C247.8 393.1 247 392.3 246.1 391.4C244.3 389.7 242.2 388.4 240 387.4C237.8 386.4 235.3 386 232.8 386C230.3 386 227.8 386.4 225.5 387.1C224.2 387.4 223.9 386.8 225.2 386.3Z" fill="#3F2552" />
  <path d="M303.4 396.3C307.4 396.2 311.5 396.1 315.5 396.1L321.6 396H327.2L327.4 395.6C327.6 395.3 327.7 395 327.9 394.7C328.2 394.1 328.6 393.6 329 393C329.5 392.2 329.7 392 330.3 391.3C326.8 388.7 324 385.8 322.1 382.2C321.7 381.5 320.9 380 320.9 380C319.2 380.4 317.6 381.2 316.3 382.3C314.9 383.4 313.7 384.6 312.7 386.1C310.7 389 309.4 392.3 308.4 395.8C308.2 396.4 307.6 396.2 307.7 395.6C308 393.8 308.4 392 309 390.2C309.6 388.5 310.4 386.7 311.5 385.2C312.6 383.7 313.9 382.3 315.5 381.2C317.1 380.2 318.8 379 320.6 378.8C320.6 378.8 320.1 377.2 319.9 376.2C319.8 375.7 319.7 375.2 319.6 374.6L319.5 373.8C319.5 373.5 319.5 373.3 319.4 373C319.4 372.5 319.3 372 319.3 371.4V369.8C319.3 369.1 320 369.1 320 369.8C320.3 373.9 321.3 377.8 323.2 381.3C324.1 383.1 325.3 384.7 326.6 386.2C327.9 387.7 329.4 389 331 390.1C331.1 390 331.2 389.9 331.3 389.8C333.1 387.9 335.2 386.2 337.6 385C340 383.8 342.5 383 345.2 382.8C347.8 382.5 350.5 382.8 353 383.4C354.3 383.7 354.1 384.3 352.9 384.1C350.4 383.7 347.9 383.5 345.4 383.9C342.9 384.2 340.5 385 338.3 386.2C336.1 387.4 334.1 389 332.4 390.8C331.6 391.7 330.8 392.7 330.1 393.7C329.7 394.2 329.4 394.7 329.1 395.3C328.9 395.6 328.8 395.8 328.6 396.1L328.4 396.5C328.3 396.7 328.1 397 328 397.3H321.5L315.4 397.2C311.4 397.1 307.3 397.1 303.3 397C301.9 397 301.9 396.3 303.4 396.3Z" fill="#3F2552" />
  <path d="M261.5 32.7C260.5 33.1 259.5 33.4 258.4 33.5C256.2 33.7 254.2 33.3 252.2 32.8C251.9 32.7 252 32.1 252.3 32.1C254.4 32.1 256.4 32.2 258.3 32C260.2 31.8 262.1 31.2 264 30.6C264.3 30.5 264.6 31.1 264.3 31.3C263.4 31.8 262.4 32.3 261.5 32.7Z" fill="#3F2552" />
  <path d="M301.7 117.4C308.8 120.3 315.4 124 322 127.7C322.5 128 322.3 128.6 321.7 128.4C314.6 125.5 308 121.8 301.4 118.1C300.9 117.8 301.2 117.2 301.7 117.4Z" fill="#3F2552" />
  <path d="M234.9 117.1C238 116.3 241.1 115.7 244.2 115.4C247.3 115 250.5 114.9 253.6 115C254.1 115 254.2 115.7 253.6 115.7C250.5 116.1 247.4 116.5 244.3 116.8C241.2 117.2 238.1 117.5 235 117.8C234.6 117.8 234.5 117.2 234.9 117.1Z" fill="#3F2552" />
  <path d="M251.3 107.5C251.8 107.5 251.8 108.2 251.3 108.2C245.8 109 240.3 110 234.6 110.5C234.2 110.5 234.1 109.9 234.5 109.8C237.2 109.1 240 108.5 242.8 108C245.6 107.6 248.5 107.4 251.3 107.5Z" fill="#3F2552" />
  <path d="M254.5 124.4C251.9 124.6 249.3 124.8 246.7 124.9C244.1 125 241.5 125 238.9 125C238.5 125 238.5 124.3 238.8 124.3C241.4 123.9 244 123.6 246.6 123.5C249.2 123.4 251.8 123.4 254.5 123.7C255 123.7 254.9 124.3 254.5 124.4Z" fill="#3F2552" />
  <path d="M178.6 47.6C179.6 43 180.7 38.5 182 34C182.1 33.7 182.7 33.8 182.7 34.1C182.3 38.8 181.2 43.4 179.3 47.8C179.2 48.2 178.6 48 178.6 47.6Z" fill="#3F2552" />
  <path d="M173.1 46.6C171.9 44.3 171.1 41.8 170.7 39.1C170.7 38.9 171.3 38.7 171.4 38.9C172.6 41.2 173.4 43.7 173.8 46.4C173.9 46.6 173.3 46.8 173.1 46.6Z" fill="#3F2552" />
  <path d="M189.8 43.9C189.9 43.8 190.4 44.3 190.3 44.4C189.1 46.3 187.6 47.9 185.8 49.2C185.6 49.3 185.2 48.9 185.3 48.7C186.5 46.8 188 45.2 189.8 43.9Z" fill="#3F2552" />
  <path d="M354.3 381.9C356.7 381.9 359.2 382.6 361.4 383.9C363.5 385.2 365.3 387.1 366.4 389.3C366.5 389.6 366 389.9 365.8 389.7C364.4 387.9 362.6 386.4 360.7 385.2C358.8 384 356.6 383.2 354.3 382.7C353.9 382.5 353.9 381.9 354.3 381.9Z" fill="#3F2552" />
  <path d="M365.9 382.5C363.7 381.3 361.6 380.5 359.2 379.9C359 379.8 359 379.2 359.2 379.2C360.5 379 361.9 379.2 363.1 379.7C364.4 380.2 365.5 381 366.3 382C366.5 382.1 366.1 382.6 365.9 382.5Z" fill="#3F2552" />
  <path d="M102.8 422.6L104 457.1H174.3C174.3 449.9 170.1 449.3 162.9 444.6C156.1 440.2 148 432.2 148 423.7C141.7 397.6 102.8 396.6 102.8 422.6Z" fill="#BC3436" />
  <path d="M67.7 422.1L66.9 456.6H12.5C12.5 439.8 24.7 443.1 24.7 423.2C28.8 391.3 67.7 394.5 67.7 422.1Z" fill="#BC3436" />
  <path d="M73.2003 431.5H19.1003C18.0003 376.5 26.6003 293.6 30.4003 225.6L148.5 226C154.9 287.7 152.3 363.2 152.9 431.5H98.8003C98.8003 431.5 93.8003 303.4 92.0003 259.8L89.2003 260.4C78.2003 335.9 73.2003 431.5 73.2003 431.5Z" fill="#F7DEDF" />
  <path d="M5.5 148.4C8.5 131.1 9.1 115.4 10.7 107.7C15 86.1 45.1 79 67.3 74.5C69 74.1 70.7 73.8 72.4 73.5C72.5 73.5 72.7 73.4 72.8 73.4C83 71.6 93.2 71.5 103.4 73.1C103.5 72.9 103.5 72.6 103.6 72.4C126 76.9 156.1 83.2 165.3 105.2C169.6 115.4 176.2 150.5 176.2 150.5L143.7 157.3L150.9 245.9C115.9 248.7 76.8 245.3 30.2 230.5L35.9 150.1L5.5 148.4Z" fill="#447A67" />
  <path d="M121.2 123.6C133 121.3 136.9 126 146 136.5C148.8 139.7 153.7 146.4 159 153.9L174 150.8L180.5 185.4L182.1 194C184 205 176.5 215.5 165.5 217.2C155.8 218.7 146.7 213.1 143.5 204.2C143 202.9 130.6 168.7 130.6 168.7C129.7 165.8 127.7 159.3 124.6 159.3L111.5 156.8C111.7 156.8 104.4 126.5 121.2 123.6Z" fill="#F7DEDF" />
  <path d="M128.5 159.6C130.8 159.2 133 158.1 134.9 156.7C136.8 155.2 138.2 153.3 139.2 151.1C139.3 150.8 138.7 150.5 138.5 150.7C135.9 154.3 132.4 157.1 128.3 158.8C127.9 159 128.1 159.7 128.5 159.6Z" fill="#3F2552" />
  <path d="M84.2998 138.5C91.3998 134.2 100.8 132.8 104.1 132.9C107.4 132.9 116.4 133.6 117.9 135.4C119.4 137.2 116.7 141.6 112.1 142.6C83.6998 148.8 78.9998 141.7 84.2998 138.5Z" fill="#F7DEDF" />
  <path d="M102.2 170.3H122.7C124.4 170.3 125.9 169 126.1 167.3L131.6 121.3C131.8 119.6 130.6 118.3 129 118.3H108.5C106.8 118.3 105.3 119.6 105.1 121.3L99.6001 167.3C99.4001 169 100.5 170.3 102.2 170.3Z" fill="#F7DEDF" />
  <path d="M103.7 170.3H124.2C125.9 170.3 127.4 169 127.6 167.3L133.1 121.3C133.3 119.6 132.1 118.3 130.5 118.3H110C108.3 118.3 106.8 119.6 106.6 121.3L101.1 167.3C100.9 169 102 170.3 103.7 170.3Z" fill="#EAA196" />
  <path d="M0.800049 191.4C2.40005 175 4.20005 160.6 6.10005 148.4L51 150.7C50.7001 153.2 50.5001 155.6 50.3001 158L81.4 140.3C82.4 139.6 83.5 139 84.5 138.5C91.8 135.4 105.1 136.6 111.4 137.9C124.3 140.8 125.8 142.6 129 144C130.8 144.8 131.4 147.2 130.5 148.9C134 150.8 134.2 154.8 128.9 156C128.7 156 128.6 156.1 128.4 156.1C130.1 156.9 130.5 158.1 130.1 159.3C129.4 161.4 127 162.4 124.4 163C123 163.3 119.5 163.7 116.1 164C117.2 164.2 118.5 164.4 120.2 164.5C125.7 164.8 124.9 169.8 122.1 170.7C119.3 171.6 117.1 171.8 103.8 172.1C103.5 172.1 103.3 172.1 103 172C101 172 98.7001 172 96.3 171.9C84.5 182.3 58.0001 204.6 36.9001 215.6C17.4001 225.7 -0.899951 209 0.800049 191.4Z" fill="#F7DEDF" />
  <path d="M26.7001 168.9C35.6001 165.2 44.2001 161 52.6001 156.3C53.2001 156 52.9001 155.4 52.3001 155.6C43.4001 159.3 34.8001 163.5 26.4001 168.2C25.7001 168.6 25.9001 169.2 26.7001 168.9Z" fill="#F7DEDF" />
  <path d="M103.4 163.4C106.3 163.1 109.3 163.1 112.2 163.1C113.8 163.2 120.8 163.1 122.6 162.8C124.5 162.4 126.4 161.9 128.1 161C128.8 160.6 129.3 159.8 129.5 159C129.7 158.2 129.3 157.3 128.7 156.8C128.6 156.8 128.6 156.7 128.6 156.7C128.2 156.8 127.8 156.8 127.3 156.8C126.7 156.8 126 156.8 125.4 156.8C125.3 156.8 125.3 156.8 125.2 156.8C125 156.8 124.9 156.8 124.7 156.8C124.1 156.8 123.4 156.7 122.8 156.7C121.6 156.6 116.3 155.9 114.8 155.7C111.4 155.3 107.9 154.9 104.4 154.5C103.8 154.4 103.8 153.8 104.4 153.7C107.9 153.6 111.4 153.8 114.9 154.2C117.1 154.5 125.7 155.4 127.1 155.3C128.5 155.2 129.9 155 130.8 154.2C131.2 153.8 131.6 153.3 131.6 152.9C131.7 152.4 131.5 151.9 131.1 151.4C130.4 150.5 129 150.1 127.6 149.6C126.2 149.1 112.3 146.8 106.9 146.1C106.4 146 106.4 145.4 106.9 145.3C110.1 145.2 113.2 145.5 116.3 146C118.7 146.4 126.4 147.9 127.9 148.3C128.4 148.5 129 148.6 129.5 148.8C129.9 148.3 130.2 147.7 130.2 147.1C130.3 146.3 130.1 145.5 129.5 144.7C129.4 144.6 129.8 144 130 144.1C131.1 144.6 131.9 146 131.7 147.3C131.6 148.1 131.2 148.8 130.6 149.3C131.1 149.6 131.6 149.9 132 150.4C132.6 151 133 152 132.9 153C132.8 154 132.2 154.8 131.6 155.4C130.9 156 130.1 156.3 129.3 156.5C130.1 157.1 130.4 158.2 130.4 159.2C130.3 160.4 129.7 161.5 128.7 162.2C126.8 163.3 124.8 164 122.8 164.4C122.2 164.5 121.6 164.6 121 164.7C120.9 164.8 119.7 164.9 119.1 164.9C117.7 165 116.3 165 114.9 164.9C113.9 164.9 112.9 164.9 112 164.8C109.1 164.7 106.2 164.5 103.3 164.3C103 164.1 102.9 163.5 103.4 163.4Z" fill="#F7DEDF" />
  <path d="M73.9998 34.8C73.9998 34.8 72.6998 77.1 72.6998 77.2C72.2998 103 111.4 96.8 109.2 79.3L107.2 54.9L73.9998 34.8Z" fill="#F7DEDF" />
  <path d="M85.8999 42L107.1 54.9L108.3 69.7C93.5999 66.8 87.5999 54.4 85.8999 42Z" fill="#F7DEDF" />
  <path d="M73.9997 34.8C73.7997 47.2 87.5997 59.1 98.6997 60.8C108.5 62.3 116.2 56.8 118.2 49.6C120.2 42.2 119.6 34 118.7 25.3C118 17.9 111.1 13 105 12.9L86.3997 12.7C79.6997 12.6 74.1997 18 74.0997 24.7L73.9997 34.8Z" fill="#F7DEDF" />
  <path d="M76.7999 17.2C76.6999 15.8 77.7999 13 82.8999 12.7C87.9999 12.4 92.9999 10.5 96.4999 8.79998C102.4 5.89998 106.5 7.69998 105.6 10.9C108.1 10.7 109.3 8.19998 112.4 9.39998C114.9 10.3 114.9 12.7 114.9 12.7C114.9 12.7 118.1 10.8 120.4 13.4C123.4 16.6 119.2 24.6 106.6 23.4C99.6999 23.1 93.2999 20.4 84.6999 22.5C84.5999 34.1 82.5999 39.1 76.6999 39C74.8999 39 75.7999 37.9 74.0999 36.2C73.9999 35.7 73.9999 35.2 73.9999 34.7V31.8C73.8999 30.2 73.7999 28.3 73.5999 26.5C72.9999 21.8 73.5999 18.4 76.7999 17.2Z" fill="#EAA196" />
  <path d="M85.0999 22.2C83.4999 21.7 81.9999 20.9 80.6999 19.9C79.3999 18.9 78.1999 17.8 77.0999 16.4C76.8999 16.2 76.3999 16.5 76.3999 16.8C76.9999 18.5 78.1999 20 79.7999 21.1C81.2999 22.2 83.0999 22.8 84.9999 22.9C85.2999 23 85.3999 22.3 85.0999 22.2Z" fill="#3F2552" />
  <path d="M68.8998 35.5C67.8998 38.3 69.2998 41.5 72.0998 42.5C74.8998 43.5 80.2998 42.9 81.2998 40C82.2998 37.2 78.6998 33.3 75.8998 32.2C73.0998 31.3 69.9998 32.7 68.8998 35.5Z" fill="#F7DEDF" />
  <path d="M71.6999 36C72.1999 35.9 72.7999 36 73.3999 36.1C73.9999 36.2 74.4999 36.4 74.9999 36.7C75.9999 37.2 76.8999 37.9 77.6999 38.9C77.7999 39 78.3999 38.8 78.3999 38.6C77.7999 35.8 74.1999 33.8 71.3999 35.3C71.0999 35.6 71.4999 36.1 71.6999 36Z" fill="#F7DEDF" />
  <path d="M75.3998 36.2C73.8998 36.3 72.4998 37.3 71.7998 38.7L75.3998 36.2Z" fill="#F7DEDF" />
  <path d="M91.7 33.5C92.8 33.2 93.8 33.1 94.9 33.1C96 33.1 97.1 33.1 98.3 33.1C98.5 33.1 98.6 32.4 98.5 32.4C97.4 31.9 96.2 31.6 94.9 31.7C93.7 31.7 92.4 32.1 91.4 32.9C91.2 33 91.6 33.5 91.7 33.5Z" fill="#3F2552" />
  <path d="M110.2 32.8C111.3 32.7 112.3 32.5 113.2 32.5C114.1 32.5 115 32.6 115.9 33.1C116 33.2 116.5 32.7 116.4 32.6C116.1 32.1 115.6 31.7 115 31.4C114.4 31.1 113.8 31 113.2 31C112 31 110.9 31.5 110 32.1C109.8 32.2 110 32.9 110.2 32.8Z" fill="#3F2552" />
  <path d="M101.1 44.7C102.5 45.2 104 45.3 105.4 45.2H105.9H106.2H106.3C106.4 45.2 106.4 45.2 106.5 45.2C107.1 45.1 107.6 44.7 107.8 44.1C107.9 43.8 108 43.5 107.9 43.3V42.8L107.8 41.8C107.6 39 107.2 36.3 106.7 33.5C106.6 33.1 106 33.2 105.9 33.6C105.9 36.4 106 39.1 106.2 41.9L106.3 42.9V43.4C106.3 43.5 106.3 43.5 106.3 43.6C106.3 43.7 106.2 43.8 106.1 43.8H106H105.9H105.6L105.1 43.9C103.8 44.1 102.5 44.1 101.1 44C100.8 43.9 100.6 44.5 101.1 44.7Z" fill="#3F2552" />
  <path d="M97.3997 50C99.1997 51.4 101.6 52.1 103.9 52C106.2 51.9 108.6 51.1 110.3 49.6C110.5 49.4 110.2 48.8 109.9 49C108 50 105.9 50.4 103.9 50.5C101.8 50.6 99.7997 50.2 97.7997 49.3C97.4997 49.2 97.0997 49.8 97.3997 50Z" fill="#3F2552" />
  <path d="M92.0998 38C92.5998 38.7 93.4998 39.3 94.5998 39.4C95.0998 39.4 95.6998 39.3 96.0998 39.1C96.5998 38.8 96.9998 38.4 97.1998 38C97.1998 37.8 96.6998 37.5 96.5998 37.6C95.9998 38 95.3998 38 94.6998 38C94.0998 38 93.3998 37.8 92.5998 37.5C92.3998 37.3 91.9998 37.8 92.0998 38Z" fill="#3F2552" />
  <path d="M111.5 38.4C111.8 39.3 112.8 39.9 113.9 39.8C114.9 39.7 115.8 38.8 115.9 37.9C115.9 37.8 115.3 37.6 115.2 37.6C114.7 38.1 114.2 38.3 113.7 38.3C113.2 38.4 112.7 38.3 112.1 38C112 37.9 111.4 38.2 111.5 38.4Z" fill="#3F2552" />
  <path d="M29.4002 251.7C31.8002 251.5 34.1002 250.7 36.1002 249.6C38.2002 248.5 40.1002 247 41.8002 245.4C43.5002 243.8 45.0002 241.9 46.2002 239.9C47.4002 237.9 48.4002 235.7 48.9002 233.4C49.0002 232.8 48.4002 232.6 48.2002 233.2C47.5002 235.3 46.4002 237.3 45.1002 239.2C43.8002 241 42.4002 242.8 40.8002 244.3C39.2002 245.9 37.4002 247.3 35.5002 248.4C33.6002 249.6 31.5002 250.5 29.3002 250.9C28.6002 251.1 28.6002 251.8 29.4002 251.7Z" fill="#3F2552" />
  <path d="M140.5 244.8C141.3 246.9 142.4 249.1 144.1 250.8C145 251.6 146 252.3 147.1 252.8C148.2 253.3 149.4 253.5 150.5 253.6C150.8 253.6 150.9 253 150.6 252.9C148.5 252.2 146.6 251.3 145 249.8C143.5 248.3 142.2 246.5 141 244.6C140.9 244.2 140.3 244.5 140.5 244.8Z" fill="#3F2552" />
  <path d="M175 175.1C173.1 172.5 171.3 169.8 169.5 167.1C167.7 164.4 165.9 161.8 164 159.1C162.2 156.4 160.3 153.8 158.5 151.1C156.7 148.4 154.8 145.8 153.1 143.1C152.6 142.3 152 142.7 152.4 143.5C153.9 146.4 155.6 149.1 157.4 151.9C159.1 154.6 160.9 157.3 162.7 160C164.5 162.7 166.4 165.3 168.3 167.9C170.2 170.5 172.2 173.1 174.3 175.6C175.1 176.4 175.6 175.9 175 175.1Z" fill="#3F2552" />
  <path d="M102.1 257.2C97.7002 257.7 93.4002 258.8 89.2002 260.3C88.9002 260.4 89.1002 261.1 89.4002 261C93.8002 260.5 98.1002 259.4 102.3 257.9C102.6 257.8 102.4 257.1 102.1 257.2Z" fill="#3F2552" />
</svg>
  