<svg viewBox="0 0 84 207" fill="none" xmlns="http://www.w3.org/2000/svg">
  <path d="M37.0002 191L36.4002 206.8H4.2002C4.2002 203.5 6.10019 203.2 9.40019 201.1C12.5002 199.1 16.3002 195.4 16.3002 191.5C19.2002 179.6 37.0002 179.1 37.0002 191Z" fill="#BC3436" />
  <path d="M53.1001 190.8L53.5001 206.6H78.4001C78.4001 198.9 72.8001 200.4 72.8001 191.3C70.9001 176.7 53.1001 178.1 53.1001 190.8Z" fill="#BC3436" />
  <path d="M50.6 195.1H75.4C75.9 169.9 72 131.9 70.2 100.7L16.1 100.9C13.2 129.2 14.4 163.8 14.1 195.1H38.9C38.9 195.1 41.2 136.4 42 116.4L43.3 116.7C48.3 151.3 50.6 195.1 50.6 195.1Z" fill="#F7DEDF" />
  <path d="M81.6002 65.3C80.2002 57.4 79.9001 50.2 79.2001 46.6C77.2001 36.7 63.4002 33.5 53.3002 31.4C52.5002 31.2 51.7002 31.1 51.0002 30.9C50.9002 30.9 50.9002 30.9 50.8002 30.9C46.1002 30.1 41.4002 30 36.8002 30.7C36.8002 30.6 36.8001 30.5 36.7001 30.4C26.4002 32.5 12.6001 35.3 8.40015 45.4C6.40015 50.1 3.40015 66.2 3.40015 66.2L18.3002 69.3L15.0002 109.9C31.0002 111.2 49.0001 109.6 70.4001 102.8L67.8002 65.9L81.6002 65.3Z" fill="#447A67" />
  <path d="M28.6001 53.9C23.2001 52.8 21.4001 55 17.2001 59.8C15.9001 61.3 13.7001 64.3 11.2001 67.8L4.30008 66.4L1.30008 82.3L0.600079 86.3C-0.299921 91.4 3.20007 96.2 8.20007 97C12.6001 97.7 16.8001 95.1 18.3001 91C18.5001 90.4 24.2001 74.7 24.2001 74.7C24.6001 73.3 25.5001 70.4 26.9001 70.4L32.9001 69.2C32.9001 69.1 36.3001 55.2 28.6001 53.9Z" fill="#F7DEDF" />
  <path d="M25.2001 70.4C24.1001 70.2 23.1002 69.7 22.3002 69.1C21.5002 68.4 20.8002 67.5 20.3002 66.5C20.2002 66.4 20.5002 66.2 20.6002 66.3C21.8002 68 23.4002 69.2 25.3002 70C25.5002 70.2 25.4001 70.5 25.2001 70.4Z" fill="#3F2552" />
  <path d="M45.5001 60.7C42.2001 58.7 38.0001 58.1 36.4001 58.1C34.9001 58.1 30.7001 58.4 30.1001 59.3C29.4001 60.1 30.7001 62.1 32.7001 62.6C45.8001 65.5 47.9001 62.2 45.5001 60.7Z" fill="#F7DEDF" />
  <path d="M37.3001 75.3H27.9001C27.1001 75.3 26.5001 74.7 26.4001 73.9L23.9001 52.8C23.8001 52 24.4001 51.4 25.1001 51.4H34.5001C35.3001 51.4 35.9001 52 36.0001 52.8L38.5001 73.9C38.6001 74.7 38.0001 75.3 37.3001 75.3Z" fill="#F7DEDF" />
  <path d="M36.6002 75.3H27.2002C26.4002 75.3 25.8002 74.7 25.7002 73.9L23.2002 52.8C23.1002 52 23.7001 51.4 24.4001 51.4H33.8002C34.6002 51.4 35.2002 52 35.3002 52.8L37.8002 73.9C37.9002 74.7 37.4002 75.3 36.6002 75.3Z" fill="#EAA196" />
  <path d="M83.8001 85C83.1001 77.5 82.3001 70.9 81.4001 65.3L60.8001 66.3C60.9001 67.4 61.0001 68.5 61.1001 69.6L46.9001 61.5C46.4001 61.2 46.0001 60.9 45.5001 60.7C42.2001 59.3 36.0001 59.8 33.1001 60.4C27.2001 61.7 26.5001 62.5 25.0001 63.2C24.2001 63.6 23.9001 64.7 24.3001 65.5C22.7001 66.4 22.6001 68.2 25.0001 68.7C25.1001 68.7 25.1001 68.7 25.2001 68.7C24.4001 69.1 24.3001 69.6 24.4001 70.2C24.7001 71.2 25.8001 71.6 27.0001 71.9C27.6001 72 29.2001 72.2 30.8001 72.3C30.3001 72.4 29.7001 72.5 28.9001 72.5C26.4001 72.6 26.8001 74.9 28.0001 75.3C29.2001 75.7 30.3001 75.8 36.4001 76C36.5001 76 36.6001 76 36.8001 76C37.7001 76 38.8001 76 39.9001 76C45.3001 80.7 57.5001 91 67.1001 96C76.2001 100.7 84.6001 93.1 83.8001 85Z" fill="#F7DEDF" />
  <path d="M71.9 74.7C67.8 73 63.9 71.1 60 68.9C59.7 68.7 59.9 68.5 60.2 68.6C64.3 70.3 68.2 72.2 72.1 74.4C72.4 74.5 72.3 74.8 71.9 74.7Z" fill="#F7DEDF" />
  <path d="M36.7002 72.2C35.4002 72 34.0002 72 32.7002 72.1C32.0002 72.1 28.8002 72.1 27.9002 72C27.0002 71.8 26.1002 71.6 25.4002 71.2C25.1002 71 24.9002 70.7 24.8002 70.3C24.7002 69.9 24.9002 69.5 25.2002 69.3C25.2002 69.3 25.2002 69.3 25.3002 69.2C25.5002 69.2 25.7002 69.2 25.9002 69.3C26.2002 69.3 26.5002 69.3 26.8002 69.3H26.9002C27.0002 69.3 27.0002 69.3 27.1002 69.3C27.4002 69.3 27.7002 69.3 28.0002 69.2C28.5002 69.1 31.0002 68.8 31.7002 68.8C33.3002 68.6 34.9002 68.4 36.5002 68.2C36.8002 68.2 36.8002 67.9 36.5002 67.8C34.9002 67.8 33.3002 67.8 31.7002 68C30.7002 68.1 26.7002 68.6 26.1002 68.5C25.5002 68.4 24.8002 68.4 24.4002 68C24.2002 67.8 24.1002 67.6 24.0002 67.4C24.0002 67.2 24.1002 66.9 24.2002 66.7C24.5002 66.3 25.2002 66.1 25.8002 65.9C26.5002 65.7 32.8002 64.6 35.3002 64.3C35.5002 64.3 35.5002 64 35.3002 63.9C33.8002 63.9 32.4002 64 31.0002 64.2C29.9002 64.4 26.4002 65.1 25.7002 65.3C25.4002 65.4 25.2002 65.4 24.9002 65.5C24.7002 65.3 24.6002 65 24.6002 64.7C24.6002 64.3 24.6002 63.9 24.9002 63.6C24.9002 63.5 24.8002 63.3 24.7002 63.3C24.2002 63.5 23.9002 64.1 23.9002 64.8C23.9002 65.2 24.1002 65.5 24.4002 65.7C24.2002 65.8 23.9002 66 23.7002 66.2C23.4002 66.5 23.2002 66.9 23.3002 67.4C23.3002 67.9 23.6002 68.2 23.9002 68.5C24.2002 68.8 24.6002 68.9 24.9002 69C24.6002 69.3 24.4002 69.8 24.4002 70.2C24.5002 70.7 24.7002 71.3 25.2002 71.6C26.1002 72.1 27.0002 72.4 27.9002 72.6C28.2002 72.7 28.5002 72.7 28.7002 72.7C28.7002 72.7 29.3002 72.8 29.6002 72.8C30.2002 72.8 30.9002 72.8 31.5002 72.8C32.0002 72.8 32.4002 72.8 32.9002 72.8C34.2002 72.8 35.6002 72.6 36.9002 72.6C36.9002 72.5 36.9002 72.2 36.7002 72.2Z" fill="#F7DEDF" />
  <path d="M50.2001 13.2L50.8001 32.6C51.0001 44.4 33.1001 41.6 34.0001 33.6L34.9001 22.4L50.2001 13.2Z" fill="#F7DEDF" />
  <path d="M44.8 16.5L35.1 22.4L34.5 29.2C41.2 27.9 44 22.2 44.8 16.5Z" fill="#F7DEDF" />
  <path d="M50.2001 13.2C50.3001 18.9 44.0001 24.4 38.9001 25.1C34.4001 25.8 30.9001 23.2 30.0001 20C29.1001 16.6 29.4001 12.9 29.7001 8.90001C30.0001 5.50001 33.2001 3.30001 36.0001 3.20001L44.5001 3.10001C47.6001 3.10001 50.1001 5.50001 50.2001 8.60001V13.2Z" fill="#F7DEDF" />
  <path d="M48.9001 5.10001C48.9001 4.50001 48.4001 3.20001 46.1001 3.00001C43.8001 2.80001 41.5001 2.00001 39.9001 1.20001C37.2001 -0.0999883 35.3001 0.700009 35.7001 2.10001C34.6001 2.00001 34.0001 0.900012 32.6001 1.40001C31.5001 1.80001 31.5001 2.90001 31.5001 2.90001C31.5001 2.90001 30.1001 2.00001 29.0001 3.20001C27.6001 4.70001 29.6001 8.30001 35.3001 7.80001C38.5001 7.70001 41.4001 6.40001 45.3001 7.40001C45.4001 12.7 46.3001 15 49.0001 15C49.8001 15 49.4001 14.5 50.2001 13.7C50.2001 13.5 50.2001 13.2 50.2001 13V11.7C50.2001 11 50.3001 10.1 50.4001 9.20001C50.7001 7.20001 50.4001 5.70001 48.9001 5.10001Z" fill="#EAA196" />
  <path d="M45.1001 7.40002C45.8001 7.20002 46.5001 6.80002 47.1001 6.40002C47.7001 6.00002 48.3001 5.40002 48.7001 4.80002C48.8001 4.70002 49.0001 4.90002 49.0001 5.00002C48.7001 5.80002 48.2001 6.50002 47.5001 7.00002C46.8001 7.50002 46.0001 7.80002 45.1001 7.80002C45.0001 7.80002 45.0001 7.50002 45.1001 7.40002Z" fill="#3F2552" />
  <path d="M52.5002 13.5C53.0002 14.8 52.3002 16.2 51.0002 16.7C49.7002 17.2 47.3002 16.9 46.8002 15.6C46.3002 14.3 48.0002 12.5 49.3002 12C50.6002 11.6 52.1002 12.2 52.5002 13.5Z" fill="#F7DEDF" />
  <path d="M51.3003 13.8C51.1003 13.7 50.8003 13.8 50.5003 13.8C50.2003 13.9 50.0003 14 49.8003 14.1C49.3003 14.3 48.9003 14.7 48.6003 15.1C48.5003 15.2 48.3003 15 48.3003 15C48.6003 13.7 50.2003 12.8 51.5003 13.5L51.3003 13.8Z" fill="#F7DEDF" />
  <path d="M49.6003 13.9C50.3003 14 50.9003 14.4 51.2003 15L49.6003 13.9Z" fill="#F7DEDF" />
  <path d="M42.1 12.6C41.6 12.5 41.1 12.4 40.6 12.4C40.1 12.4 39.6 12.4 39.1 12.4C39 12.4 39 12.1 39 12.1C39.5 11.9 40.1 11.7 40.6 11.8C41.2 11.8 41.8 12 42.2 12.4C42.3 12.3 42.2 12.6 42.1 12.6Z" fill="#3F2552" />
  <path d="M33.6002 12.3C33.1002 12.2 32.7002 12.2 32.2002 12.2C31.8002 12.2 31.4002 12.2 31.0002 12.5C30.9002 12.5 30.7002 12.3 30.8002 12.2C31.0002 12 31.2002 11.8 31.4002 11.7C31.7002 11.6 32.0002 11.5 32.2002 11.5C32.8002 11.5 33.3002 11.7 33.7002 12C33.8002 12 33.7002 12.3 33.6002 12.3Z" fill="#3F2552" />
  <path d="M37.8001 17.7C37.2001 17.9 36.5001 18 35.8001 17.9H35.6001H35.5001H35.4001H35.3001C35.0001 17.8 34.8001 17.7 34.7001 17.4C34.6001 17.3 34.6001 17.1 34.6001 17V16.8V16.3C34.7001 15 34.9001 13.8 35.1001 12.5C35.1001 12.3 35.4001 12.3 35.4001 12.5C35.4001 13.8 35.4001 15 35.3001 16.3V16.8V17V17.1L35.4001 17.2H35.5001H35.6001H35.8001C36.4001 17.3 37.0001 17.3 37.6001 17.2C37.9001 17.4 38.0001 17.6 37.8001 17.7Z" fill="#3F2552" />
  <path d="M39.5 20.2C38.7 20.8 37.6 21.1 36.5 21.1C35.4 21.1 34.4 20.7 33.6 20C33.5 19.9 33.7 19.7 33.8 19.7C34.7 20.1 35.6 20.4 36.6 20.4C37.5 20.4 38.5 20.3 39.4 19.9C39.5 19.8 39.6 20.1 39.5 20.2Z" fill="#3F2552" />
  <path d="M41.9001 14.6C41.6001 14.9 41.3001 15.2 40.8001 15.2C40.6001 15.2 40.3001 15.2 40.1001 15.1C39.9001 15 39.7001 14.8 39.6001 14.6C39.6001 14.5 39.8001 14.4 39.9001 14.4C40.2001 14.6 40.5001 14.6 40.8001 14.6C41.1001 14.6 41.4001 14.5 41.8001 14.4C41.8001 14.3 41.9001 14.6 41.9001 14.6Z" fill="#3F2552" />
  <path d="M33 14.8C32.8 15.2 32.4 15.5 31.9 15.4C31.4 15.3 31 14.9 31 14.5C31 14.4 31.3 14.3 31.3 14.4C31.5 14.6 31.8 14.7 32 14.7C32.2 14.7 32.5 14.7 32.7 14.5C32.8 14.6 33.1 14.8 33 14.8Z" fill="#3F2552" />
  <path d="M70.7001 112.7C69.6001 112.6 68.6001 112.3 67.6001 111.7C66.6001 111.2 65.8001 110.5 65.0001 109.8C64.2001 109.1 63.5001 108.2 63.0001 107.3C62.4001 106.4 62.0001 105.4 61.7001 104.3C61.6001 104 61.9001 103.9 62.0001 104.2C62.3001 105.2 62.8001 106.1 63.4001 106.9C64.0001 107.7 64.7001 108.5 65.4001 109.3C66.1001 110 66.9001 110.7 67.8001 111.2C68.7001 111.7 69.6001 112.1 70.6001 112.3C71.0001 112.4 71.0001 112.7 70.7001 112.7Z" fill="#3F2552" />
  <path d="M19.7002 109.5C19.3002 110.5 18.8002 111.5 18.0002 112.2C17.6002 112.6 17.1002 112.9 16.6002 113.1C16.1002 113.3 15.6002 113.4 15.0002 113.5C14.8002 113.5 14.8002 113.2 14.9002 113.2C15.9002 112.9 16.8002 112.4 17.4002 111.8C18.1002 111.1 18.7002 110.3 19.2002 109.4C19.5002 109.2 19.8002 109.3 19.7002 109.5Z" fill="#3F2552" />
  <path d="M3.90011 77.5C4.80011 76.3 5.60011 75.1 6.40011 73.8C7.20011 72.6 8.10011 71.4 8.90011 70.1C9.70011 68.9 10.6001 67.7 11.4001 66.4C12.2001 65.2 13.1001 64 13.9001 62.7C14.1001 62.4 14.4001 62.5 14.2001 62.9C13.5001 64.2 12.7001 65.5 11.9001 66.7C11.1001 68 10.3001 69.2 9.40011 70.4C8.60011 71.6 7.70012 72.8 6.80012 74C5.90012 75.2 5.00012 76.4 4.10012 77.5C3.90012 78.1 3.60011 77.9 3.90011 77.5Z" fill="#3F2552" />
  <path d="M37.3001 115.2C39.3001 115.4 41.3001 115.9 43.2001 116.6C43.3001 116.7 43.3001 116.9 43.1001 116.9C41.1001 116.7 39.1001 116.2 37.2001 115.5C37.1001 115.4 37.2001 115.2 37.3001 115.2Z" fill="#3F2552" />
</svg>
  