<svg viewBox="0 0 276 341" fill="none" xmlns="http://www.w3.org/2000/svg">
  <path d="M131.7 138.6c-2.5 2-4.2 4.4-5.4 6.6 1.1-2 2.8-4.2 5.4-6.6ZM124.2 150.9s.1 0 0 0c.1 0 0 0 0 0v.2-.2ZM92 207.3c4.3-1 7.3-11.8 1.2-17l-7.1-.7c-4.9-.7-12.6-1.6-15.5-1.3-.7.1-1.3.2-1.7.4-1.6.4-2.8 1.2-3.8 2.2-3 .3-4.7 1.2-5.8 2.5-3 .7-3.9 2.7-4.7 5.2-1 3.2-1.5 6.5 2.1 5 .1 0 .2-.1.3-.1.5.6 1.4.7 3 .1l.6-.3c.2.6.6 1 1.1 1.1 1.7.5 3.1 0 4.1-1.1.7 2 4.5 1.6 6.8 1.6 2.5 0 5.5.1 6.7.1 1.4 0 2.7-.2 3.7-.5l9 2.8Z" fill="#E3F0E5" />
  <path d="M145.9 130.3c-18.4 7.5-20.6 16.3-21.6 20.6-1.1 4.3-7.2 40.4-7.2 40.4l-13.3-1.4c-.5-.1-1 0-1.4.3l-.9.6-8.4-.7c6.4 5.2 3.3 16.2-1 17.2l7.1 2.3c.1.8.6 1.4 1.3 1.6l26.2 7.2c6.4 2.2 13.4-1.8 14.6-8.5 5.8-32 16.1-71.3 4.6-79.6Z" fill="#E3F0E5" />
  <path d="m130.1 171.9-4.6 46.1 1.3.4a11 11 0 0 0 12.7-4.1l-9.4-42.4ZM65.9 190.4c-1.7 1.3-3 3.1-3.9 5-.9 1.9-1.4 4-1.4 6.2 0 .3-.3.3-.4 0-.3-2.2.1-4.5 1.1-6.5s2.5-3.8 4.4-5c.3-.2.5 0 .2.3ZM60.4 192.8c-1.2 1.3-2.2 2.8-2.8 4.5-.6 1.6-.9 3.4-.9 5.2 0 .3-.3.3-.4 0-.3-1.8-.1-3.8.5-5.5.7-1.8 1.8-3.3 3.3-4.5.3-.2.5.1.3.3ZM99.4 208.7c2.6-2.1 4.4-5.2 4.8-8.5.4-3.3-.6-6.7-2.6-9.4-.3-.4 0-.6.3-.2 2.3 2.6 3.5 6.2 3.1 9.7-.4 3.5-2.4 6.7-5.3 8.7-.6.3-.7 0-.3-.3ZM90.3 198.3c-1 2.2-2.5 4-4.4 5.5-.1.1 0 .4.2.3a8 8 0 0 0 2.9-2.3c.8-1 1.4-2.2 1.6-3.4.1-.2-.2-.3-.3-.1ZM77.1 196.2c-2.6.6-5.2 1.2-7.7 1.9-.2.1-.5.1-.7.2 0-.1.1-.1.1-.2.3-.6.6-1.2.9-1.9.3-.6.5-1.3.7-2 0-.2-.3-.3-.4-.1-.2.6-.6 1.2-.9 1.8-.3.6-.7 1.2-1 1.8-.2.3-.3.6-.5.9-.1 0-.1.1-.2.1-.3.2-.6.3-.9.5-.3.2-.6.5-.8.8-.4.6-.5 1.4-.4 2.1.1.7.4 1.4.9 1.9.2.2.3.2.4.1.1-.1 0-.2-.1-.4-.4-.5-.6-1.1-.7-1.7 0-.6.1-1.2.4-1.7.3-.5.9-.8 1.4-1 .6-.2 1.2-.4 1.9-.6 2.5-.7 5.1-1.4 7.6-2.3.5 0 .4-.3 0-.2Z" fill="#E3F0E5" />
  <path d="m168 122.8 30 12.3c5.9 2.7 9 9.4 7 15.6-4.8 15.2-10 31.3-3 70.8 0 0-44.5 2.6-59.5 2.4-12.9-38.3-13.7-47.7-12-72.8.9-12.8 12.9-21.1 25.1-25 9.4-3 12.4-3.3 12.4-3.3Z" fill="#E3F0E5" />
  <path d="M153 223.2c-1.8-8.2-3.4-16.5-4.8-24.8-.7-4.2-1.3-8.3-1.8-12.5-.3-2.1-.4-4.2-.6-6.3l-.1-.8v-.8l-.1-1.6-.1-1.6v-6.4l.1-1.6.1-1.6c0-.5.1-1.1.2-1.6l.2-1.6c.1-.5.1-1.1.2-1.6l.5-3.1c.2-1 .5-2.1.7-3.1l.2-.8.2-.8.4-1.5c.2-.5.3-1 .4-1.5l.5-1.5c1.4-4 3.1-7.9 5-11.6 1.9-3.8 4-7.4 6-11.1 1.2-2.1 1.5-1.9.3.2-2 3.7-4 7.4-5.9 11.1-1.8 3.8-3.5 7.6-4.8 11.6l-.5 1.5c-.2.5-.3 1-.4 1.5l-.4 1.5-.2.8-.2.8c-.2 1-.5 2-.7 3.1l-.5 3.1c-.1.5-.1 1-.2 1.6l-.2 1.6c-.1.5-.1 1-.2 1.6l-.1 1.6-.1 1.6v6.3l.1 1.6.1 1.6v.8l.1.8c.2 2.1.3 4.2.6 6.3.5 4.2 1.1 8.3 1.7 12.5 1.3 8.3 2.9 16.6 4.5 24.8.8 2.6.5 2.7-.2-.1ZM138.7 100s-1.9-.3-1.4-1.5c1.8-3.9 9.9-1.5 8.2 1-.5 1-3.6 2.1-6.8.5Z" fill="#3F2552" />
  <path d="m166.1 104.7 1.1.6 2.4 21.2c0 .2 0 .4.1.6.5 5.8-2.8 11.2-8 13.7l-9.5 4.5c-.9.4-1.9 0-2.2-.9-.9-2.5-1.3-5.2-1.3-8l.1-17.1 17.3-14.6Z" fill="#F7DEDF" />
  <path d="M159.1 117.7c.5-1.8 1-3.8 1.4-5.8l-11.7 9.8-.1 7.9c6.5-2.8 9.6-8.8 10.4-11.9Z" fill="#3F2552" />
  <path d="M167.2 104.4c.9 7.8-9.5 16.3-16.4 18-6.1 1.5-9.6-1.2-10.7-5.3-1.5-5.9-2-9-1.7-15.9.2-4.7 4-8.2 7.8-8.6l11.7-1.3c4.2-.5 8 2.6 8.5 6.8l.8 6.3Z" fill="#F7DEDF" />
  <path d="m167.2 104.4-.7-6.3a7.1 7.1 0 0 0-2.5-4.9c1-.9 1.6-2.2 1.9-3.5.1-.2-.2-.3-.3-.1-.5 1-1.1 1.9-1.9 2.7.2-.7.3-1.4.4-2.1 0-.2-.3-.2-.3 0-.1.8-.4 1.6-.9 2.2-1.4-.9-3-1.3-4.9-1.1l-11.7 1.3c-7.3.8-8.9 5.9-8.9 5.9.3-.2 1.6 0 1.6.1 3.2.6 9.2 2.1 14.9.6-1.8 1-3.9 1.4-6 1.2-.3 0-.3.2 0 .3 1.5.3 3.2.2 4.7-.3 2.3-.8 3.3-1.9 3.5-1.9.8 7.3 4.3 9.4 8 9 1.1-.1 2.3-.9 3.2-2.1 0-.4-.1-.7-.1-1Z" fill="#EAA196" />
  <path d="M168.7 106.8c.7 1.8-.3 3.9-2.1 4.5-1.8.6-5.3.2-6-1.6-.7-1.8 1.7-4.3 3.5-5 1.9-.7 3.9.2 4.6 2.1Z" fill="#F7DEDF" />
  <path d="M166.9 107c-.2 0-.4-.1-.5-.1h-.6c-.4.1-.7.2-1.1.4-.7.3-1.3.8-1.7 1.5-.1.1-.4 0-.3-.2.5-1.7 2.7-3 4.4-2.1.1.3-.1.6-.2.5Z" fill="#F7DEDF" />
  <path d="M166.6 108.9c-.3-.3-.6-.6-1-.8-.3-.2-.7-.4-1.1-.6-.1 0 0-.4 0-.4.5-.1 1.1.1 1.5.4.4.3.8.8.9 1.3l-.3.1Z" fill="#F7DEDF" />
  <path d="M150.9 105.2c-.6-.1-1.2-.3-1.8-.3-.6-.1-1.1-.1-1.8 0-.1 0-.2-.3-.1-.4.6-.3 1.3-.5 2-.4.7.1 1.3.4 1.8.7.1.2 0 .5-.1.4ZM142.1 105.4c-.6-.1-1.1-.2-1.6-.2-.2 0-.5 0-.7.1-.2.1-.4.2-.6.4-.1 0-.4-.1-.3-.2.1-.3.3-.6.6-.8.3-.2.7-.3 1-.3.7 0 1.2.3 1.7.6.1.1-.1.4-.1.4ZM146 112c-.7.4-1.6.6-2.5.5-.1 0-.2 0-.3-.1-.2-.1-.4-.1-.5-.2-.3 0-.1-.2-.1-.4l.1-.3v-.2l.3-1.1c.3-1.5.4-3.1 0-4.6 0-.2.3-.3.4-.1.6 1.5.7 3.3.3 4.9l-.3 1.2v.1c.1 0 .2.1.3.1.7.2 1.5.1 2.2-.1.2-.2.4.1.1.3ZM150.4 113.8c-.9 1.1-2.1 1.8-3.4 2.3-1.3.4-2.8.4-4.1.1-.2-.1-.1-.4.1-.4 1.3.1 2.6 0 3.8-.4 1.2-.4 2.4-1 3.4-1.8.1-.2.3 0 .2.2ZM150.9 108c-.2.7-.9 1.2-1.6 1.2-.8 0-1.4-.6-1.5-1.3 0-.1.3-.2.4-.1.3.4.8.7 1.2.7.4 0 .9-.2 1.3-.6-.1-.2.2-.1.2.1ZM141.7 108.2c0 .1-.1.2-.2.4 0 .1-.1.1-.1.2s-.1.1-.1.2c-.2.2-.5.4-.8.4-.3 0-.7-.1-.9-.4-.2-.3-.2-.6-.1-.9 0-.1.4 0 .4.1 0 .2.1.3.2.4.1.1.2.1.4.1.3 0 .6-.3 1-.6 0-.1.2 0 .2.1ZM163.8 93.4c-2.8 1.2-5.3 2.8-7.6 4.8-.2.1-.4-.1-.3-.3 1.9-2.4 4.7-4.2 7.7-4.9.4 0 .5.3.2.4Z" fill="#3F2552" />
  <path d="m161.6 209.5-2.7-.8 2.7.8ZM155.7 190.2h-.2v-.1s-10.4-2.6-14.2-2.6c-1.1 0-9.1 2.4-13.7 3.1-3.2-2.3-6-2.1-6.4-1.3-3.6-1.8-8.3-.8-8.2 5.7 0 0-4.8 3-7.7 4.6-4.8 2.5 3.3 6.4 10 1.7.7 1.7 2.4 2.4 2.5 2.4 4.9.3 13.7.8 13.9.8 1.6.1 8.9.3 13.8.1l9 2.9c4.3-1.2 7.3-12.1 1.2-17.3Z" fill="#F7DEDF" />
  <path d="m183 158.4-7.7 34.6 9.4 4.3-1.7-38.9Z" fill="#3F2552" />
  <path d="M190 131.8c-7.5 12.4-10.5 59.5-10.5 59.5l-13.3-1.4c-.5-.1-1 0-1.4.3l-.9.6-8.4-.7c6.4 5.2 3.3 16.2-1 17.2l7.1 2.3c.1.8.6 1.4 1.3 1.6l26.2 7.2c6.4 2.2 13.4-1.8 14.6-8.5 4.2-23 6.7-42.3 6.7-58.6 0-13.2-20.4-19.5-20.4-19.5Z" fill="#E3F0E5" />
  <path d="M179.6 190.8c3.5-.3 7.1.3 10.3 1.9.2.1.1.4-.1.4-3.3-1.1-6.7-1.7-10.2-1.9-.3 0-.3-.3 0-.4ZM161.8 208.7c2.6-2.1 4.4-5.2 4.8-8.5.4-3.3-.6-6.7-2.6-9.4-.3-.4 0-.6.3-.2 2.3 2.6 3.5 6.2 3.1 9.7-.4 3.5-2.4 6.7-5.3 8.7-.5.3-.7 0-.3-.3ZM136.1 202l-.1-.1s-.1-.1-.2-.1c-.4-.3-.8-.8-1.1-1.3-.4-.5-.7-.9-1.2-1.3-.3-.2-.6-.3-.9-.4h-.9c-.6.1-1.2.3-1.8.5-1.1.5-2.1 1.2-3.1 1.7-.5.3-1 .5-1.5.5-.2 0-.5 0-.7-.1l-.2-.1-.2-.1-.2-.1c-.1 0-.1-.1-.1-.1-.4-.3-.7-.8-.8-1.3-.1-.5-.1-1 0-1.6.3-1 .9-2 1.6-2.8.4-.4.8-.8 1.3-1.1.5-.3 1-.5 1.5-.7 1.1-.4 2.2-.4 3.3 0 .7.3.9 0 .1-.4-1.1-.4-2.4-.5-3.6-.1-.6.2-1.1.4-1.7.7-.5.3-1 .7-1.4 1.1-.9.8-1.6 1.9-1.9 3.1-.2.6-.2 1.3 0 1.9.1.4.3.8.6 1.2 0 .1-.1.1-.1.2-.1.1-.3.2-.4.3-.3.2-.6.3-.9.3-.3 0-.7 0-1-.1-.3-.1-.6-.2-.9-.5-.1-.1-.2-.2-.4-.3-.1-.1-.2-.3-.3-.4 0-.1-.1-.1-.1-.2l-.1-.3-.2-.5c-.1-.2-.1-.3-.2-.5l-.2-.5c0-.2-.1-.4-.1-.5 0-.2-.1-.4-.1-.5l-.1-.6V195.1c0-.4.1-.7.2-1.1 0-.2.1-.4.1-.5l.1-.3c0-.1.1-.2.1-.3.2-.7.6-1.4 1-2 .4-.6.9-1.2 1.5-1.6.4-.3.3-.6-.2-.3-.7.4-1.3 1-1.7 1.6-.5.6-.9 1.3-1.1 2.1 0 .1-.1.2-.1.3l-.1.3c-.1.2-.1.4-.2.6-.1.4-.2.8-.2 1.2 0 .2 0 .4-.1.6v1.2l.1.6c0 .2.1.4.1.6 0 .2.1.4.1.6l.2.6c.1.2.1.4.2.6l.2.5.1.1-.1.1-.2.2c-.2.1-.3.3-.5.3-.4.2-.7.1-1.1 0-.4-.2-.7-.5-1-.8-.3-.3-.5-.7-.7-1.1-.2-.4-.4-.8-.5-1.3-.1-.4-.3-.9-.4-1.4-.2-.9-.5-1.9-.6-2.8 0-.4-.4-.4-.4 0 0 1 .2 2 .3 2.9l.3 1.4c.1.5.3 1 .5 1.4.2.5.5.9.8 1.3.3.4.7.8 1.3 1 .3.1.5.2.8.2.3 0 .6-.1.9-.2.3-.1.5-.3.7-.5l.2-.2c.1.1.2.2.2.3.2.2.3.3.5.4.3.3.7.5 1.2.6.4.1.9.1 1.3.1.4-.1.8-.2 1.2-.5.2-.1.3-.3.5-.4l.1-.1.1.1.2.2.2.1.2.1c.1 0 .2.1.2.1.3.1.7.2 1 .2.7-.1 1.3-.3 1.8-.6 1-.6 2-1.3 3-1.8.5-.2 1-.4 1.6-.5.3 0 .5-.1.8 0 .2 0 .5.1.7.3.4.3.8.7 1.2 1.2.4.4.7.9 1.3 1.3.1 0 .1.1.2.1h.2c.1 0 .1 0 .2-.1-.1 0-.2 0-.2-.1ZM151 198.4c-.3 1.4-1.1 2.7-2.1 3.7s-2.3 1.8-3.7 2.2c-.2.1-.3-.3-.1-.4 1.2-.6 2.3-1.4 3.3-2.4.9-1 1.7-2.1 2.3-3.3 0-.1.4 0 .3.2Z" fill="#3F2552" />
  <mask id="a" style="mask-type:alpha" maskUnits="userSpaceOnUse" x="13" y="-192" width="210" height="869">
    <path fill-rule="evenodd" clip-rule="evenodd" d="M223 676.7H13.3v-868H223v868Z" fill="#fff" />
  </mask>
  <g mask="url(#a)">
    <path fill-rule="evenodd" clip-rule="evenodd" d="M216.9 225.3H37.7v-22.2h179.2v22.2Z" fill="#F7DEDF" />
  </g>
  <mask id="b" style="mask-type:alpha" maskUnits="userSpaceOnUse" x="13" y="-192" width="210" height="869">
    <path fill-rule="evenodd" clip-rule="evenodd" d="M223 676.7H13.3v-868H223v868Z" fill="#fff" />
  </mask>
  <g mask="url(#b)">
    <path fill-rule="evenodd" clip-rule="evenodd" d="M216.9 225.3h-62.7v-22.2h62.7v22.2Z" fill="#EAA196" />
  </g>
  <mask id="c" style="mask-type:alpha" maskUnits="userSpaceOnUse" x="12" y="96" width="212" height="235">
    <path fill-rule="evenodd" clip-rule="evenodd" d="M223.9 330.7H12.1V96.9h211.8v233.8Z" fill="#fff" />
  </mask>
  <g mask="url(#c)">
    <path fill-rule="evenodd" clip-rule="evenodd" d="M217.8 209.1h-181v-6h181v6Z" fill="#F7DEDF" />
  </g>
  <mask id="d" style="mask-type:alpha" maskUnits="userSpaceOnUse" x="12" y="96" width="212" height="235">
    <path fill-rule="evenodd" clip-rule="evenodd" d="M223.9 330.7H12.1V96.9h211.8v233.8Z" fill="#fff" />
  </mask>
  <g mask="url(#d)">
    <path fill-rule="evenodd" clip-rule="evenodd" d="M217.8 209.1h-63.4v-6h63.4v6Z" fill="#F7DEDF" />
  </g>
  <path d="M217.8 208.9h-181v.5h181v-.5Z" fill="#F7DEDF" />
  <path fill-rule="evenodd" clip-rule="evenodd" d="m120.3 201.1-5.9-46c-.1-.8-.8-1.4-1.5-1.4H48.1c-.8 0-1.3.6-1.2 1.4l6 46.7c.1.8.8 1.4 1.5 1.4h96.4c.8 0 1.4-.6 1.4-1.4v-.7h-31.9Z" fill="#447A67" />
  <mask id="e" style="mask-type:alpha" maskUnits="userSpaceOnUse" x="0" y="44" width="276" height="287">
    <path fill-rule="evenodd" clip-rule="evenodd" d="M275.4 330.1H0V44.2h275.4v285.9Z" fill="#fff" />
  </mask>
  <g mask="url(#e)" fill="#447A67">
    <path fill-rule="evenodd" clip-rule="evenodd" d="M46.1 153.7h64.8c.8 0 1.4.6 1.5 1.4l6 46.7c.1.8-.4 1.4-1.2 1.4H52.5c-.8 0-1.4-.6-1.5-1.4l-6-46.7c-.2-.8.4-1.4 1.1-1.4Z" />
    <path d="M79.3 183.8a6.2 6.2 0 1 0 0-12.4 6.2 6.2 0 0 0 0 12.4Z" />
  </g>
</svg>