<svg width="135" height="135" viewBox="0 0 135 135" fill="none" xmlns="http://www.w3.org/2000/svg">
    <path d="M103.841 47.3038C101.871 46.0638 99.8908 44.8138 97.9208 43.5738C97.2308 43.1438 96.4908 42.6938 95.6808 42.7238C94.8608 42.7538 94.0708 43.1838 93.4808 43.7638C81.1608 55.9938 73.1808 65.8138 62.2008 74.6938C59.1208 70.9038 52.5208 64.9338 48.6308 61.9838C46.7608 60.5638 44.6808 59.2038 42.3408 59.0238C41.6208 58.9738 40.8808 59.0638 40.1808 59.2938L38.0008 60.6338C36.8808 61.2838 35.9508 61.8838 35.2708 62.5338C34.1708 63.5838 33.7308 64.7638 34.2508 66.4538C34.5208 67.3238 35.2108 67.9838 35.8708 68.6038C43.1608 75.3938 50.4408 82.1838 57.7308 88.9838C58.5308 89.7238 59.4108 90.5138 60.4908 90.6038C61.6208 90.7038 62.6608 90.0238 63.5908 89.3638C78.8908 78.4838 92.6808 65.4638 104.411 50.8038C104.871 50.2338 105.351 49.5538 105.211 48.8338C105.081 48.1238 104.441 47.6738 103.841 47.3038Z" fill="#14DBC4"/>
    <path d="M132.89 53.9738C131.65 47.3338 129.26 40.9238 126.05 34.9838C122.78 28.9238 118.63 23.3538 114.14 18.1438C109.16 12.3638 103.91 6.68381 96.42 4.33381C92.6 3.13381 88.58 2.68381 84.63 2.09381C80.82 1.52381 76.95 0.683806 73.1 0.383806C69.55 0.103806 65.94 0.0938058 62.38 0.0338058C60.45 0.00380583 58.5 -0.0461942 56.58 0.0938058C53.57 0.313806 50.55 1.42381 47.69 2.30381C40.13 4.64381 32.71 7.75381 26.12 12.1638C20.04 16.2338 14.64 21.3338 10.67 27.5138C6.38996 34.1738 3.97996 41.8938 2.41996 49.6038C0.799963 57.6038 -0.530037 65.9838 0.209963 74.1538C0.959963 82.4938 4.29996 89.9138 8.52996 97.0438C12.54 103.794 16.8 110.604 22.38 116.194C27.27 121.104 33.11 125.084 39.4 127.974C52.35 133.924 67.15 135.784 81.2 133.414C88.69 132.154 95.46 128.694 101.73 124.514C104.8 122.464 107.51 120.124 110.14 117.544C112.55 115.194 115.08 112.974 117.49 110.624C119.86 108.304 122.01 105.804 124 103.144C124.13 103.004 124.26 102.844 124.37 102.654C125.18 101.294 126.01 99.9338 126.8 98.5638C126.84 98.5038 126.87 98.4438 126.91 98.3838C126.94 98.3538 126.97 98.3238 127.02 98.2638C127.58 97.6538 128.06 96.9638 128.53 96.2838C129.34 95.0938 130 93.8138 130.57 92.4938C133.14 86.5738 133.91 80.0038 134.13 73.6038C134.34 67.0538 134.09 60.4038 132.89 53.9738ZM128.23 82.7938C127.73 85.5338 127.04 88.3138 125.85 90.8438C125.27 92.0738 124.59 93.2938 123.76 94.3738C123.34 94.9238 122.77 95.5438 122.37 96.2238C121.6 97.5238 120.82 98.8238 120.05 100.124C116.15 105.434 111.12 109.574 106.45 114.154C104.07 116.494 101.65 118.574 98.86 120.424C96.04 122.284 93.09 123.954 90.07 125.454C83.75 128.584 76.45 129.384 69.47 129.414C62.94 129.434 56.45 128.544 50.18 126.714C43.97 124.904 38.07 122.144 32.76 118.434C27.09 114.474 22.49 109.344 18.61 103.654C16.46 100.494 14.44 97.2338 12.51 93.9438C10.62 90.7338 8.81996 87.4338 7.49996 83.9438C4.71996 76.5538 4.64996 68.8038 5.58996 61.0438C6.47996 53.6138 7.91996 46.0738 10.52 39.0438C12.97 32.4238 16.84 26.5638 21.99 21.7438C27.11 16.9538 33.21 13.3238 39.62 10.5338C43.17 8.99381 46.86 7.74381 50.58 6.65381C52.43 6.11381 54.35 5.73381 56.18 5.13381C56.2 5.12381 56.21 5.12381 56.22 5.11381C56.22 5.11381 56.22 5.11381 56.23 5.11381C56.59 5.09381 56.96 5.06381 57.32 5.04381C61.46 4.87381 65.63 5.07381 69.77 5.23381C70.87 5.27381 71.99 5.28381 73.09 5.37381C73.63 5.43381 74.18 5.53381 74.72 5.62381C75.78 5.78381 76.84 5.94381 77.9 6.10381C79.94 6.41381 81.98 6.71381 84.02 7.02381C87.8 7.59381 91.64 8.04381 95.28 9.22381C98.62 10.3038 101.48 12.2438 104.02 14.6338C108.86 19.1938 113.25 24.5038 117.05 29.9538C120.64 35.1238 123.71 40.6838 125.76 46.6538C127.85 52.7138 128.81 58.9438 129.06 65.3238C129.3 71.1338 129.28 77.0538 128.23 82.7938Z" fill="#14DBC4"/>
</svg>
