<svg width="135" height="135" viewBox="0 0 135 135" fill="none" xmlns="http://www.w3.org/2000/svg">
    <path d="M132.89 53.9738C131.65 47.3338 129.26 40.9238 126.05 34.9838C122.78 28.9238 118.63 23.3538 114.14 18.1438C109.16 12.3638 103.91 6.68381 96.42 4.33381C92.6 3.13381 88.58 2.68381 84.63 2.09381C80.82 1.52381 76.95 0.683806 73.1 0.383806C69.55 0.103806 65.94 0.0938058 62.38 0.0338058C60.45 0.00380583 58.5 -0.0461942 56.58 0.0938058C53.57 0.313806 50.55 1.42381 47.69 2.30381C40.13 4.64381 32.71 7.75381 26.12 12.1638C20.04 16.2338 14.64 21.3338 10.67 27.5138C6.38996 34.1738 3.97996 41.8938 2.41996 49.6038C0.799963 57.6038 -0.530037 65.9838 0.209963 74.1538C0.959963 82.4938 4.29996 89.9138 8.52996 97.0438C12.54 103.794 16.8 110.604 22.38 116.194C27.27 121.104 33.11 125.084 39.4 127.974C52.35 133.924 67.15 135.784 81.2 133.414C88.69 132.154 95.46 128.694 101.73 124.514C104.8 122.464 107.51 120.124 110.14 117.544C112.55 115.194 115.08 112.974 117.49 110.624C119.86 108.304 122.01 105.804 123.99 103.144C124.12 103.004 124.25 102.844 124.36 102.654C125.17 101.294 126 99.9338 126.79 98.5638C126.83 98.5038 126.86 98.4438 126.9 98.3838C126.93 98.3538 126.96 98.3238 127.01 98.2638C127.57 97.6538 128.05 96.9638 128.52 96.2838C129.33 95.0938 129.99 93.8138 130.56 92.4938C133.13 86.5738 133.9 80.0038 134.12 73.6038C134.34 67.0538 134.09 60.4038 132.89 53.9738ZM128.23 82.7938C127.73 85.5338 127.04 88.3138 125.85 90.8438C125.27 92.0738 124.59 93.2938 123.76 94.3738C123.34 94.9238 122.77 95.5438 122.37 96.2238C121.6 97.5238 120.82 98.8238 120.05 100.124C116.15 105.434 111.12 109.574 106.45 114.154C104.07 116.494 101.65 118.574 98.86 120.424C96.04 122.284 93.09 123.954 90.07 125.454C83.75 128.584 76.45 129.384 69.47 129.414C62.94 129.434 56.45 128.544 50.18 126.714C43.97 124.904 38.07 122.144 32.76 118.434C27.09 114.474 22.49 109.344 18.61 103.654C16.46 100.494 14.44 97.2338 12.51 93.9438C10.62 90.7338 8.81996 87.4338 7.49996 83.9438C4.71996 76.5538 4.64996 68.8038 5.58996 61.0438C6.47996 53.6138 7.91996 46.0738 10.52 39.0438C12.97 32.4238 16.84 26.5638 21.99 21.7438C27.11 16.9538 33.21 13.3238 39.62 10.5338C43.17 8.99381 46.86 7.74381 50.58 6.65381C52.43 6.11381 54.35 5.73381 56.18 5.13381C56.2 5.12381 56.21 5.12381 56.22 5.11381C56.22 5.11381 56.22 5.11381 56.23 5.11381C56.59 5.09381 56.96 5.06381 57.32 5.04381C61.46 4.87381 65.63 5.07381 69.77 5.23381C70.87 5.27381 71.99 5.28381 73.09 5.37381C73.63 5.43381 74.18 5.53381 74.72 5.62381C75.78 5.78381 76.84 5.94381 77.9 6.10381C79.94 6.41381 81.98 6.71381 84.02 7.02381C87.79 7.59381 91.64 8.04381 95.28 9.22381C98.62 10.3038 101.48 12.2438 104.02 14.6338C108.86 19.1938 113.25 24.5038 117.05 29.9538C120.64 35.1238 123.71 40.6838 125.76 46.6538C127.85 52.7138 128.81 58.9438 129.06 65.3238C129.3 71.1338 129.28 77.0538 128.23 82.7938Z" fill="#FF5B5A"/>
    <path d="M98.8808 42.9838C99.3008 42.4438 99.7308 41.7538 99.4808 41.1238C99.3308 40.7538 98.9808 40.5138 98.6508 40.2938C96.9908 39.1838 95.3308 38.0738 93.6608 36.9638C92.8008 36.3838 91.8708 35.7938 90.8308 35.8038C89.5908 35.8238 88.5108 36.6738 87.6408 37.5638C81.0208 44.2838 74.1308 52.9638 67.0908 59.4538L62.3508 54.6738C61.4808 53.9138 60.6708 53.0838 59.8708 52.2538C55.1308 47.3938 51.1008 41.8638 46.3608 37.0038C45.3508 35.9638 44.0908 34.8338 42.6608 35.0738C41.9008 35.1938 41.2608 35.6938 40.6508 36.1738C38.7408 37.6838 36.8308 39.2038 34.9208 40.7138C34.6208 40.9538 34.3008 41.2438 34.3108 41.6238C34.3308 41.9638 34.6208 42.2138 34.8808 42.4338C43.9408 49.6638 51.9908 58.0638 60.0108 66.4338C60.0108 66.4338 44.3008 83.1038 36.6208 90.6638C36.3408 90.9338 36.0508 91.2438 36.0208 91.6238C35.9808 92.0838 36.3308 92.4738 36.6508 92.7938C38.7408 94.9338 41.4108 97.2538 44.3208 96.5538C45.7008 96.2238 46.8208 95.2538 47.8808 94.3038C54.2208 88.6838 60.5508 83.0638 66.8908 77.4438C73.9408 83.9138 80.9808 90.3838 88.0308 96.8538C88.7708 97.5338 89.5808 98.2538 90.5808 98.3638C91.3708 98.4538 92.1408 98.1438 92.8608 97.7938C95.0208 96.7538 96.9808 95.2938 98.6008 93.5338C98.8708 93.2438 99.1408 92.9038 99.1408 92.5138C99.1408 91.9938 98.6808 91.6138 98.2608 91.3138C90.2108 85.3938 83.6408 78.0938 77.2308 70.4138L75.4508 68.2038C84.1008 60.7738 91.9408 52.0038 98.8808 42.9838Z" fill="#FF5B5A"/>
</svg>
