<?xml version="1.0" standalone="no"?>
<!DOCTYPE svg PUBLIC "-//W3C//DTD SVG 20010904//EN"
 "http://www.w3.org/TR/2001/REC-SVG-20010904/DTD/svg10.dtd">
<svg version="1.0" xmlns="http://www.w3.org/2000/svg"
 width="1235.000000pt" height="1235.000000pt" viewBox="0 0 1235.000000 1235.000000"
 preserveAspectRatio="xMidYMid meet">
<metadata>
Created by potrace 1.11, written by Peter Selinger 2001-2013
</metadata>
<g transform="translate(0.000000,1235.000000) scale(0.100000,-0.100000)"
fill="#000000" stroke="none">
<path d="M6155 12080 c-21 -36 -49 -85 -63 -110 -14 -25 -36 -62 -49 -82 -12
-21 -23 -40 -23 -43 0 -3 -16 -31 -35 -61 -19 -30 -35 -57 -35 -59 0 -3 -12
-24 -26 -47 -14 -23 -36 -60 -49 -82 -12 -23 -79 -140 -150 -261 -70 -121
-136 -236 -147 -255 -11 -19 -122 -210 -246 -425 -216 -374 -254 -439 -285
-495 -7 -14 -55 -97 -107 -185 -51 -88 -144 -250 -208 -360 -63 -110 -155
-270 -205 -355 -49 -85 -131 -227 -182 -315 -51 -88 -192 -333 -315 -545 -122
-212 -231 -401 -242 -420 -22 -38 -289 -500 -373 -645 -92 -158 -105 -182
-105 -188 0 -4 387 -7 860 -7 473 0 860 -3 859 -7 0 -5 -9 -21 -19 -38 -10
-16 -25 -41 -33 -55 -29 -53 -61 -108 -112 -195 -29 -49 -104 -181 -168 -292
-64 -111 -126 -217 -137 -235 -11 -18 -25 -44 -32 -58 -7 -14 -15 -27 -18 -30
-3 -3 -10 -14 -16 -25 -6 -11 -64 -112 -130 -225 -65 -113 -126 -221 -137
-240 -10 -19 -27 -48 -38 -65 -10 -16 -22 -36 -26 -44 -3 -8 -42 -76 -86 -150
-43 -75 -89 -154 -101 -176 -13 -22 -74 -128 -136 -235 -62 -107 -121 -209
-131 -227 -9 -17 -69 -120 -132 -230 -134 -231 -132 -228 -262 -454 -55 -96
-105 -180 -112 -187 -7 -7 -13 -17 -13 -21 0 -5 -70 -129 -156 -277 -86 -148
-166 -287 -179 -309 -12 -22 -45 -80 -74 -128 -28 -49 -51 -90 -51 -93 0 -2
389 -4 865 -4 l865 0 -38 -62 c-21 -35 -41 -70 -45 -78 -4 -8 -17 -31 -28 -50
-12 -19 -72 -123 -134 -230 -305 -528 -404 -699 -427 -740 -14 -25 -75 -130
-136 -235 -60 -104 -118 -205 -128 -222 -11 -18 -70 -122 -133 -230 -63 -109
-147 -253 -185 -321 -39 -68 -78 -135 -87 -150 -73 -124 -389 -674 -389 -678
0 -2 1557 -4 3460 -4 1903 0 3460 2 3460 5 0 3 -6 16 -14 28 -13 20 -478 827
-524 907 -10 19 -60 105 -109 190 -50 85 -208 360 -352 610 -145 250 -277 480
-295 510 -19 30 -45 75 -58 100 -14 25 -71 123 -127 219 -55 96 -101 175 -101
176 0 1 -31 56 -70 121 -38 66 -70 122 -70 127 0 4 387 7 860 7 473 0 860 2
860 5 0 2 -19 37 -43 77 -24 40 -46 80 -50 88 -4 8 -18 33 -32 55 -14 22 -30
49 -36 60 -5 11 -15 29 -22 40 -7 11 -30 51 -52 90 -53 93 -53 92 -107 185
-27 44 -48 82 -48 85 0 2 -15 28 -33 57 -19 29 -47 78 -64 108 -17 30 -52 91
-77 135 -26 44 -51 87 -56 95 -4 8 -27 46 -49 83 -23 38 -41 71 -41 75 0 4
-11 23 -23 42 -13 19 -37 60 -54 90 -17 30 -156 271 -309 535 -153 264 -293
507 -311 540 -19 33 -43 76 -55 95 -26 44 -274 472 -300 520 -11 19 -87 150
-168 290 -81 140 -158 273 -170 295 -12 22 -62 108 -111 192 -49 84 -89 155
-89 158 0 3 387 5 860 5 617 0 860 3 860 11 0 6 -8 23 -18 37 -11 15 -73 122
-139 237 -67 116 -194 336 -283 490 -89 154 -174 300 -188 325 -14 25 -64 113
-112 195 -47 83 -139 240 -202 350 -64 110 -125 216 -137 235 -11 19 -29 51
-39 70 -10 19 -43 76 -72 125 -29 50 -64 110 -78 135 -14 25 -97 169 -185 320
-174 301 -241 416 -462 800 -81 140 -166 287 -188 325 -23 39 -47 79 -53 90
-5 11 -37 65 -68 120 -32 55 -70 120 -84 145 -13 25 -28 50 -32 55 -5 6 -19
30 -32 55 -23 41 -81 143 -176 305 -19 33 -46 80 -60 105 -14 25 -45 78 -69
118 -24 41 -43 76 -43 79 0 2 -13 24 -30 48 -16 24 -30 46 -30 49 0 4 -20 39
-44 79 -24 39 -45 79 -48 87 -3 9 -19 -11 -43 -50z"/>
</g>
</svg>
