<svg width="512" height="104" xmlns="http://www.w3.org/2000/svg" preserveAspectRatio="xMidYMid">
  <path fill="#F37368" d="M381.46 36.99v64.83h-20.88V26.83z" />
  <path d="m85.87 89.78 15.66 13.64 66-34.38-6.82-16.39-74.84 37.13Zm274.7-41.77 53.1-27.56-9-15.52-44.1 21.9v21.18Z" fill="#F7A199" />
  <path d="M211.18 31.9v69.92h-20.01V2.18l20.01 29.73ZM85.87 89.79l15.66 13.64 30.17-75.43-9.72-25.81-36.11 87.6Z" fill="#F37368" />
  <path d="M121.98 2.18h20.6l38.14 99.64h-21.17L121.98 2.18Zm92.25 0 43.95 68.02v31.62L191.17 2.18h23.06Zm81.66 0h20.74v99.64h-20.74V2.18Zm64.69 18.27h-31.91V2.18h74.4l10.6 18.27h-53.1Z" fill="#F04939" />
  <path fill="#F7A199" d="M475.01 63.96v37.86h-20.59V63.96" />
  <path fill="#F04939" d="m489.23 2.18-34.81 61.78h20.59l36.12-61.78z" />
  <path fill="#F37368" d="M454.42 63.96 418.45 2.18h22.62l24.23 42.35z" />
  <path d="M8.56 13.78c0 13.78 8.56 22.05 25.67 26.4l18.13 4.2c16.25 3.77 26.1 13.06 26.1 28.14a29.25 29.25 0 0 1-5.94 18.13c0-15.08-7.83-23.2-26.54-28.14l-17.84-4.06C13.78 55.26 2.76 47.57 2.76 31.18c0-6.23 2.03-12.47 5.8-17.4" fill="#F04939" />
  <path fill="#F37368" d="M258.18 65.12V2.18h20.01v99.64h-20.01zM61.35 68.75c7.69 4.93 11.17 11.9 11.17 21.9-6.53 8.27-17.7 12.77-30.9 12.77-22.18 0-38-11.03-41.33-30.03h21.32c2.76 8.7 10 12.77 19.87 12.77 11.75.14 19.73-6.24 19.87-17.41M8.55 13.63C14.8 5.51 25.54.58 38.59.58c22.77 0 35.83 12.04 39.16 28.86h-20.6c-2.31-6.67-7.97-11.89-18.27-11.89-11.17.15-18.7 6.53-19.14 16.68-7.48-4.12-11.46-12.18-11.17-20.6Z" />
</svg>